<svg id="Capa_1" data-name="Capa 1" xmlns="http://www.w3.org/2000/svg" xmlns:xlink="http://www.w3.org/1999/xlink" viewBox="0 0 1321.71 473.14"><defs><style>.cls-1{fill:none;}.cls-2{fill:#ff8500;}.cls-3{fill:url(#petro_1);}</style><pattern id="petro_1" data-name="petro 1" width="736.61" height="584.14" patternTransform="translate(-1392.04 -53.85)" patternUnits="userSpaceOnUse" viewBox="0 0 736.61 584.14"><rect class="cls-1" width="736.61" height="584.14"/><path class="cls-2" d="M598.22,525.05c-5.15,0-10.31,0-15.47,0-2.22,0-4.26-.53-4.43-2.92-.19-2.74,2.11-2.92,4.2-2.91,9.48,0,19,.13,28.44.1,10.62,0,18.19,5.11,22.69,14.3,9.27,19,9.49,38.35,1.42,57.78-2.87,6.9-8.72,10.17-15.7,11.64-13.18,2.78-26.35,3.81-39.22-1.34C567,596.46,559,583.23,561,570.64a14.42,14.42,0,0,1,5.15-9.36c5.77-4.67,13.29-2.89,16.53,4a43.33,43.33,0,0,1,2.94,8.42c2.51,10.62,15.09,15.72,25.91,7.3,14.06-10.95,9.63-31.65.54-39.74-5.1-4.54-11.53-4.62-17.85-4.66-1.32,0-3.13.21-3.38,2.26-.22,1.72.79,2.83,2,3.78,2.3,1.84,5.19,2.09,7.92,2.69,9,2,15.73,11.85,14,20.92-.92,4.77-3.67,8.08-8.72,9-4.88.91-9.65.75-13.87-2.15a8.85,8.85,0,0,1-3-11.45c2-3.59,4.94-4.71,8.82-3.46,1.31.42,2.53,1,2.76,2.53.25,1.72-.94,2.43-2.28,2.75-1.94.45-2.84,1.4-2.46,3.47s1.79,2.69,3.5,3c7.51,1.36,11.19-2.71,9.09-10-1.5-5.22-4.52-8.67-10.18-9.52a18.13,18.13,0,0,1-10.26-4.61c-2.63-2.52-3.76-5.5-2.72-9,1-3.33,3.55-5,6.9-5.71,11.93-2.59,25.26,4,30.42,15.67,5.72,13,4.32,25.33-4.93,36.32-7.54,8.95-22.16,10.12-31,2.86a18.18,18.18,0,0,1-5.68-9.16,68.92,68.92,0,0,0-2.48-7.52c-1.1-2.51-2.78-4.62-6-4.46-3.4.17-5,2.58-5.75,5.38-2.06,8,.7,14.77,6.43,20.26,7.25,7,16.43,9.07,26.12,9.07a96,96,0,0,0,19.73-2.33c5.65-1.19,9.61-4.33,11.54-9.83,5.91-16.83,6-33.48-1.5-49.91-3.63-8-9.5-12.57-18.59-12.39-4.16.08-8.31,0-12.47,0Z"/><path class="cls-2" d="M673.12,481.41c8.32,10.67,21.67,15,33.17,5,6.89-6,15.11-8.76,24.08-9.63,2.23-.21,4.73-.47,5.22,2.34.56,3.21-2.12,3.12-4.3,3.27-10.58.74-18.77,6.72-28,12.53,6.06,1.82,11.48,1.08,16.81,1.34,1.66.08,3.34,0,5,.16a2.68,2.68,0,0,1,2.68,3,2.54,2.54,0,0,1-2.8,2.78c-21.55.37-43,.28-58-19.07a4.58,4.58,0,0,0-3.79-1.81c-9.62-.68-19.23-1.55-28.9-1-1.63.1-4,1.05-4.38-1.77s1.94-3.68,4.13-3.89a111.34,111.34,0,0,1,22.43.07c27.52,2.92,51.07-5.5,71.06-24.36,1.67-1.58,3.34-3.29,5.4-1.08,2.26,2.44-.3,3.9-1.74,5.29-14.77,14.3-32.23,23.13-52.7,25.81-.83.11-1.65.24-2.47.4S674.37,481.13,673.12,481.41Z"/><path class="cls-2" d="M675.06,409.16c12.16-.1,24,3.24,36.2,3.12,2.33,0,4.66,0,7-.24,1.79-.15,3.55-.31,3.81,2s-1.16,3.17-3.27,3.53c-7.68,1.32-15.25-.05-22.83-.79-8.92-.87-17.78-2.49-26.79-1.94-14.12.86-25.67,7.31-35.91,16.53-7.29,6.55-14.48,13.23-21.68,19.89-1.82,1.68-3.86,3.32-5.91.87-1.87-2.24.55-3.57,2-4.78,10.69-9,19.64-19.88,31.28-27.8C649.84,412.09,661.93,408.87,675.06,409.16Z"/><path class="cls-2" d="M717.43,519.24a175.34,175.34,0,0,1-53.68-13.39c-14.17-6.08-28.42-12-44.07-13.15-2.13-.16-4.13-.69-3.86-3.44s2.51-2.17,4.23-2.09c8.71.42,17,2.65,25.18,5.57,16.21,5.79,31.81,13.35,48.77,17a163.56,163.56,0,0,0,21.08,3.54c5.71.45,11.27.09,16.47-2.65,1.8-.95,3.55-1.2,4.67.93,1.24,2.39-.7,3.32-2.27,4.15C729,518.3,723.63,519.21,717.43,519.24Z"/><path class="cls-2" d="M724,436c-5.75,5.27-10.68,12-17.89,14.95-12.21,4.92-23.43,12.3-36.69,14.66a33.84,33.84,0,0,1-16.24-.84c-10.06-3.16-20.38-4.56-30.82-5.37-2.28-.17-4.73-.2-4.46-3.26s2.92-2.79,5-2.25c4.6,1.2,7-.58,9.36-4.66,7-12.26,16.28-21.75,31.45-23.37,6.19-.66,11.87.76,17.47,2.91a77.41,77.41,0,0,0,11.28,3.78c6.75,1.45,12.1-.29,16.12-6,1.24-1.76,2.68-3.93,5.19-2,2.66,2,.43,3.74-.76,5.4-3.88,5.38-8.53,9.37-15.52,8.54-6.38.17-12-1.91-17.54-4.13a37.51,37.51,0,0,0-16.53-2.9c-9.43.6-24.49,12.8-27.12,21.86-.23.82-.49,1.48.46,2.09,3.14,2,8.34,1,10.05-2.36,7.44-14.53,21.83-16.67,33.94-9.63,12.3,7.15,21.72,5.69,31.06-3.93,2.54-2.62,5.42-4.92,8.1-7.41,1.6-1.5,3.38-2.6,5.16-.68C726.71,433.14,725.49,434.69,724,436ZM684.5,451.55c-5.25-2.71-10.33-6.05-17-5.37-7.19-1-11.91,2.7-15.43,8.86-1.39,2.43-1.06,3.16,1.64,3.91,10.93,3.06,20.91.15,30.72-4.35C686.84,453.52,686.11,452.38,684.5,451.55Z"/><path class="cls-2" d="M554.57,438.36c-8.32-10.67-21.67-15-33.17-5-6.89,6-15.11,8.76-24.08,9.62-2.23.22-4.73.48-5.22-2.33-.56-3.22,2.12-3.12,4.3-3.27,10.57-.74,18.77-6.72,28-12.54-6.06-1.81-11.49-1.07-16.81-1.33-1.67-.08-3.34,0-5-.16a2.68,2.68,0,0,1-2.68-3,2.53,2.53,0,0,1,2.8-2.78c21.55-.37,43-.28,58,19.07a4.6,4.6,0,0,0,3.79,1.81c9.62.68,19.23,1.55,28.9,1,1.63-.1,4-1,4.38,1.76s-1.94,3.69-4.13,3.9a110.61,110.61,0,0,1-22.43-.08c-27.52-2.91-51.07,5.5-71.06,24.37-1.67,1.58-3.34,3.29-5.4,1.07-2.26-2.43.3-3.89,1.74-5.29,14.77-14.29,32.23-23.12,52.7-25.8.83-.11,1.65-.25,2.46-.4S553.32,438.64,554.57,438.36Z"/><path class="cls-2" d="M552.63,510.61c-12.17.1-24-3.24-36.2-3.12-2.33,0-4.66,0-7,.23-1.79.16-3.55.32-3.81-2s1.16-3.17,3.27-3.53c7.68-1.32,15.25,0,22.83.79,8.92.87,17.77,2.49,26.79,1.94,14.12-.86,25.67-7.31,35.91-16.53,7.29-6.56,14.48-13.24,21.68-19.89,1.82-1.68,3.86-3.32,5.91-.87,1.87,2.23-.55,3.57-2,4.77-10.69,9-19.64,19.89-31.28,27.81A60.24,60.24,0,0,1,552.63,510.61Z"/><path class="cls-2" d="M510.26,400.53a175.05,175.05,0,0,1,53.68,13.39c14.17,6.07,28.42,12,44.07,13.15,2.13.16,4.13.69,3.86,3.43s-2.51,2.18-4.23,2.09c-8.71-.41-17-2.64-25.18-5.56-16.21-5.79-31.81-13.35-48.78-17a163.12,163.12,0,0,0-21.07-3.54c-5.71-.46-11.27-.09-16.47,2.65-1.8.95-3.56,1.2-4.67-.94-1.24-2.38.69-3.31,2.27-4.14C498.7,401.47,504.06,400.55,510.26,400.53Z"/><path class="cls-2" d="M503.67,483.73c5.75-5.27,10.68-12.05,17.89-15,12.21-4.92,23.43-12.31,36.69-14.66a33.6,33.6,0,0,1,16.24.84c10.06,3.16,20.38,4.56,30.82,5.36,2.27.18,4.73.2,4.46,3.27s-2.92,2.79-5,2.25c-4.6-1.2-7,.58-9.36,4.66-7,12.25-16.28,21.75-31.45,23.36-6.19.67-11.87-.75-17.48-2.9a76.88,76.88,0,0,0-11.27-3.78c-6.75-1.46-12.1.29-16.12,6-1.24,1.76-2.69,3.93-5.19,2-2.66-2-.43-3.74.76-5.4,3.88-5.38,8.53-9.37,15.52-8.54,6.38-.17,12,1.91,17.53,4.13a37.55,37.55,0,0,0,16.54,2.9c9.42-.6,24.49-12.81,27.12-21.86.23-.82.49-1.48-.46-2.09-3.14-2-8.34-1-10,2.36-7.44,14.52-21.84,16.67-33.94,9.63-12.3-7.15-21.72-5.69-31.06,3.93-2.55,2.62-5.42,4.92-8.1,7.41-1.6,1.49-3.38,2.6-5.16.68C501,486.63,502.2,485.08,503.67,483.73Zm39.51-15.51c5.26,2.71,10.34,6,17,5.36,7.18,1,11.91-2.69,15.43-8.85,1.39-2.44,1.06-3.16-1.64-3.92-10.93-3.05-20.91-.14-30.72,4.36C540.85,466.25,541.58,467.39,543.18,468.22Z"/><path class="cls-2" d="M598.22,330.34c-5.15,0-10.31,0-15.47,0-2.22,0-4.26-.53-4.43-2.93-.19-2.74,2.11-2.92,4.2-2.91,9.48,0,19,.13,28.44.11,10.62,0,18.19,5.1,22.69,14.3,9.27,18.95,9.49,38.34,1.42,57.78-2.87,6.9-8.72,10.17-15.7,11.64-13.18,2.78-26.35,3.81-39.22-1.35C567,401.75,559,388.52,561,375.92a14.4,14.4,0,0,1,5.15-9.35c5.77-4.67,13.29-2.89,16.53,4a43.33,43.33,0,0,1,2.94,8.42c2.51,10.62,15.09,15.71,25.91,7.29,14.06-10.95,9.63-31.64.54-39.73-5.1-4.54-11.53-4.63-17.85-4.66-1.32,0-3.13.21-3.38,2.25-.22,1.73.79,2.84,2,3.79,2.3,1.84,5.19,2.09,7.92,2.69,9,2,15.73,11.84,14,20.92-.92,4.77-3.67,8.08-8.72,9-4.88.91-9.65.75-13.87-2.15a8.85,8.85,0,0,1-3-11.45c2-3.59,4.94-4.71,8.82-3.46,1.31.42,2.53,1,2.76,2.53.25,1.72-.94,2.43-2.28,2.74-1.94.46-2.84,1.41-2.46,3.48s1.79,2.68,3.5,3c7.51,1.36,11.19-2.71,9.09-10-1.5-5.22-4.52-8.67-10.18-9.52a18.21,18.21,0,0,1-10.26-4.62c-2.63-2.52-3.76-5.49-2.72-9,1-3.34,3.55-5,6.9-5.71,11.93-2.59,25.26,4,30.42,15.67,5.72,13,4.32,25.33-4.93,36.32-7.54,8.94-22.16,10.12-31,2.85a18.11,18.11,0,0,1-5.68-9.15,69.09,69.09,0,0,0-2.48-7.53c-1.1-2.5-2.78-4.62-6-4.45-3.4.17-5,2.58-5.75,5.38-2.06,8,.7,14.77,6.43,20.26,7.25,7,16.43,9.07,26.12,9.06a96,96,0,0,0,19.73-2.33c5.65-1.19,9.61-4.32,11.54-9.82,5.91-16.83,6-33.48-1.5-49.91-3.63-8-9.5-12.57-18.59-12.39-4.16.08-8.31,0-12.47,0Z"/><path class="cls-2" d="M427.59,546.31c8.31,10.67,21.66,15,33.16,5,6.89-6,15.11-8.76,24.08-9.62,2.23-.22,4.73-.48,5.22,2.34.56,3.21-2.12,3.11-4.3,3.27-10.57.73-18.77,6.72-28,12.53,6.06,1.81,11.49,1.07,16.82,1.33,1.66.08,3.33,0,5,.17a2.66,2.66,0,0,1,2.68,3,2.53,2.53,0,0,1-2.8,2.78c-21.54.38-43,.28-58-19.07a4.59,4.59,0,0,0-3.79-1.81c-9.62-.67-19.23-1.54-28.9-1-1.63.09-4,1-4.38-1.77s1.94-3.69,4.13-3.9a110.61,110.61,0,0,1,22.43.08c27.53,2.91,51.07-5.5,71.06-24.37,1.67-1.57,3.35-3.29,5.4-1.07,2.26,2.43-.3,3.9-1.74,5.29-14.77,14.3-32.23,23.13-52.7,25.81-.83.1-1.65.24-2.46.39S428.83,546,427.59,546.31Z"/><path class="cls-2" d="M429.52,474.06c12.17-.1,24,3.25,36.2,3.12,2.33,0,4.66,0,7-.23,1.78-.16,3.54-.32,3.8,2s-1.15,3.16-3.27,3.52c-7.68,1.32-15.25-.05-22.83-.79-8.92-.87-17.77-2.48-26.79-1.94-14.12.86-25.67,7.32-35.91,16.53-7.29,6.56-14.47,13.24-21.68,19.89-1.82,1.68-3.86,3.33-5.91.88-1.87-2.24.55-3.58,2-4.78,10.7-9,19.64-19.89,31.28-27.8C404.3,477,416.39,473.77,429.52,474.06Z"/><path class="cls-2" d="M471.89,584.14a174.77,174.77,0,0,1-53.68-13.39c-14.17-6.07-28.42-12-44.07-13.15-2.13-.16-4.13-.69-3.86-3.43s2.51-2.17,4.24-2.09c8.7.41,17,2.65,25.17,5.56,16.21,5.8,31.81,13.35,48.78,17a159.76,159.76,0,0,0,21.07,3.54c5.71.46,11.28.1,16.47-2.64,1.8-1,3.56-1.21,4.67.93,1.24,2.38-.69,3.31-2.27,4.14C483.45,583.2,478.09,584.12,471.89,584.14Z"/><path class="cls-2" d="M478.48,500.94c-5.75,5.27-10.67,12.05-17.89,14.95-12.21,4.92-23.43,12.31-36.69,14.67a33.72,33.72,0,0,1-16.24-.85c-10.05-3.16-20.38-4.56-30.82-5.36-2.27-.18-4.72-.2-4.46-3.27s2.92-2.79,5-2.25c4.6,1.21,7-.58,9.36-4.65,7-12.26,16.28-21.76,31.45-23.37,6.19-.66,11.87.75,17.48,2.9a77.28,77.28,0,0,0,11.27,3.78c6.76,1.46,12.1-.29,16.12-6,1.24-1.76,2.69-3.92,5.19-2,2.66,2,.43,3.75-.76,5.4-3.87,5.38-8.53,9.37-15.52,8.54-6.38.17-12-1.9-17.53-4.13a37.67,37.67,0,0,0-16.54-2.9c-9.42.6-24.49,12.81-27.11,21.86-.24.82-.49,1.49.45,2.1,3.14,2,8.34,1,10-2.36,7.45-14.53,21.84-16.68,34-9.64,12.3,7.15,21.71,5.7,31-3.93,2.55-2.62,5.42-4.91,8.1-7.41,1.6-1.49,3.38-2.6,5.16-.68C481.17,498.05,480,499.6,478.48,500.94ZM439,516.45c-5.26-2.71-10.34-6.05-17-5.36-7.19-1-11.92,2.69-15.44,8.85-1.38,2.44-1.06,3.16,1.64,3.92,10.93,3,20.91.14,30.72-4.35C441.3,518.42,440.58,517.28,439,516.45Z"/><path class="cls-2" d="M309,503.26c-8.32-10.66-21.66-15-33.17-5-6.89,6-15.11,8.77-24.07,9.63-2.24.21-4.74.47-5.23-2.34-.55-3.21,2.12-3.12,4.3-3.27,10.58-.74,18.77-6.72,28-12.53-6.06-1.82-11.48-1.08-16.81-1.33-1.66-.08-3.34,0-5-.17a2.66,2.66,0,0,1-2.67-3,2.53,2.53,0,0,1,2.79-2.79c21.55-.37,43-.28,58,19.08a4.6,4.6,0,0,0,3.8,1.8c9.62.68,19.22,1.55,28.89,1,1.63-.1,4-1.05,4.38,1.77s-1.94,3.68-4.13,3.9a111.34,111.34,0,0,1-22.43-.08c-27.52-2.92-51.07,5.5-71.06,24.36-1.67,1.58-3.34,3.3-5.4,1.08-2.25-2.43.3-3.9,1.74-5.29,14.77-14.3,32.24-23.13,52.71-25.81.82-.11,1.64-.24,2.46-.4S307.78,503.54,309,503.26Z"/><path class="cls-2" d="M307.09,575.51c-12.16.11-24-3.24-36.2-3.12-2.32,0-4.66,0-7,.24-1.78.15-3.55.31-3.81-2s1.16-3.16,3.28-3.53c7.67-1.31,15.24.06,22.82.8,8.92.87,17.78,2.48,26.8,1.93,14.11-.85,25.66-7.31,35.91-16.52,7.29-6.56,14.47-13.24,21.67-19.9,1.82-1.68,3.86-3.32,5.91-.87,1.87,2.24-.55,3.58-2,4.78-10.69,9-19.64,19.89-31.28,27.8C332.31,572.58,320.22,575.8,307.09,575.51Z"/><path class="cls-2" d="M264.72,465.44a175,175,0,0,1,53.68,13.38c14.17,6.08,28.42,12,44.07,13.16,2.13.15,4.13.68,3.86,3.43s-2.51,2.17-4.23,2.09c-8.71-.42-17-2.65-25.18-5.56-16.21-5.8-31.81-13.36-48.77-17a163.27,163.27,0,0,0-21.08-3.54c-5.71-.45-11.27-.09-16.46,2.65-1.81.95-3.56,1.21-4.68-.93-1.24-2.39.7-3.31,2.27-4.14C253.16,466.37,258.52,465.46,264.72,465.44Z"/><path class="cls-2" d="M258.13,548.64c5.76-5.28,10.68-12,17.9-15,12.2-4.91,23.42-12.3,36.69-14.66a33.69,33.69,0,0,1,16.23.85c10.06,3.15,20.38,4.56,30.82,5.36,2.28.17,4.73.2,4.46,3.27s-2.92,2.78-5,2.24c-4.6-1.2-7,.59-9.36,4.66-7,12.26-16.28,21.75-31.44,23.37-6.2.66-11.88-.76-17.48-2.9a76.22,76.22,0,0,0-11.28-3.78c-6.75-1.46-12.1.29-16.12,6-1.23,1.77-2.68,3.93-5.19,2-2.66-2-.43-3.74.76-5.39,3.88-5.39,8.53-9.38,15.52-8.55,6.38-.16,12,1.91,17.54,4.13a37.66,37.66,0,0,0,16.53,2.91c9.43-.61,24.49-12.81,27.12-21.87.24-.82.49-1.48-.46-2.09-3.14-2-8.34-1-10,2.36-7.45,14.53-21.84,16.68-33.95,9.64-12.3-7.16-21.71-5.7-31.06,3.93-2.54,2.62-5.42,4.91-8.09,7.41-1.61,1.49-3.38,2.59-5.17.68C255.44,551.53,256.67,550,258.13,548.64Zm39.52-15.52c5.25,2.71,10.33,6,17,5.37,7.19,1,11.92-2.69,15.43-8.86,1.39-2.43,1.06-3.16-1.64-3.91-10.93-3.06-20.91-.15-30.72,4.35C295.31,531.15,296,532.3,297.65,533.12Z"/><path class="cls-2" d="M352.68,395.24c-5.15,0-10.31,0-15.46,0-2.22,0-4.27-.53-4.44-2.92-.19-2.74,2.12-2.92,4.21-2.91,9.47,0,18.95.13,28.43.1,10.62,0,18.19,5.11,22.69,14.31,9.28,18.94,9.49,38.34,1.42,57.77-2.87,6.9-8.72,10.18-15.7,11.65-13.17,2.77-26.35,3.8-39.21-1.35-13.12-5.26-21.13-18.49-19.15-31.08a14.44,14.44,0,0,1,5.15-9.36c5.77-4.67,13.29-2.89,16.54,4a44,44,0,0,1,2.93,8.42c2.52,10.63,15.1,15.72,25.91,7.3,14.06-11,9.63-31.65.54-39.74-5.1-4.54-11.53-4.62-17.85-4.66-1.31,0-3.12.21-3.38,2.26-.22,1.72.79,2.83,2,3.78,2.31,1.84,5.19,2.1,7.92,2.69,9,2,15.73,11.85,14,20.92-.92,4.77-3.67,8.08-8.72,9-4.88.91-9.65.75-13.87-2.15a8.81,8.81,0,0,1-3-11.44c1.94-3.6,4.93-4.72,8.81-3.47,1.31.42,2.53,1,2.76,2.53.25,1.72-.94,2.43-2.28,2.75-1.94.45-2.84,1.41-2.46,3.47s1.79,2.69,3.51,3c7.5,1.36,11.18-2.71,9.09-10-1.51-5.22-4.53-8.67-10.19-9.51a18.21,18.21,0,0,1-10.26-4.62c-2.63-2.52-3.76-5.5-2.72-9,1-3.33,3.55-5,6.9-5.71,11.93-2.59,25.26,4,30.42,15.67,5.72,13,4.32,25.33-4.93,36.32-7.54,8.95-22.15,10.12-31,2.86a18.16,18.16,0,0,1-5.67-9.16,69,69,0,0,0-2.49-7.52c-1.09-2.5-2.78-4.62-6-4.46-3.4.17-5,2.59-5.75,5.38-2.06,8,.71,14.77,6.43,20.26,7.25,6.95,16.43,9.07,26.12,9.07a96.15,96.15,0,0,0,19.74-2.33c5.64-1.19,9.6-4.33,11.53-9.83,5.91-16.82,6-33.48-1.49-49.91-3.64-8-9.51-12.57-18.6-12.39-4.15.08-8.31,0-12.47,0Z"/><path class="cls-2" d="M182.05,611.22c8.31,10.66,21.66,15,33.16,5,6.89-6,15.11-8.76,24.08-9.63,2.23-.21,4.74-.47,5.22,2.34.56,3.21-2.11,3.12-4.3,3.27-10.57.74-18.77,6.72-28,12.53,6.05,1.82,11.48,1.08,16.81,1.33,1.66.08,3.33,0,5,.17a2.67,2.67,0,0,1,2.68,3,2.54,2.54,0,0,1-2.8,2.79c-21.54.37-43,.28-58-19.08a4.6,4.6,0,0,0-3.8-1.8c-9.62-.68-19.23-1.55-28.89-1-1.64.1-4,1-4.38-1.77s1.93-3.68,4.13-3.89a111.34,111.34,0,0,1,22.43.07c27.52,2.92,51.06-5.5,71-24.36,1.67-1.58,3.35-3.29,5.4-1.08,2.26,2.44-.3,3.9-1.74,5.29-14.76,14.3-32.23,23.13-52.7,25.81-.82.11-1.65.24-2.46.4S183.29,610.94,182.05,611.22Z"/><path class="cls-2" d="M184,539c12.17-.11,24,3.24,36.2,3.12,2.33,0,4.66,0,7-.24,1.78-.15,3.54-.31,3.8,2s-1.15,3.16-3.27,3.53c-7.67,1.31-15.24-.06-22.83-.8-8.91-.87-17.77-2.48-26.79-1.93-14.11.85-25.67,7.31-35.91,16.52-7.29,6.56-14.47,13.24-21.67,19.9-1.83,1.68-3.86,3.32-5.91.87-1.88-2.24.54-3.57,2-4.78,10.69-9,19.63-19.88,31.27-27.8C158.76,541.9,170.86,538.68,184,539Z"/><path class="cls-2" d="M232.94,565.85c-5.75,5.27-10.67,12-17.89,14.95-12.2,4.91-23.43,12.3-36.69,14.66a33.68,33.68,0,0,1-16.23-.85c-10.06-3.15-20.39-4.56-30.83-5.36-2.27-.17-4.72-.2-4.45-3.27s2.92-2.78,5-2.24c4.6,1.2,7-.58,9.36-4.66,7-12.26,16.28-21.75,31.45-23.37,6.19-.66,11.87.76,17.48,2.9a75,75,0,0,0,11.27,3.78c6.76,1.46,12.1-.29,16.12-6,1.24-1.76,2.69-3.93,5.2-2s.42,3.74-.77,5.39c-3.87,5.39-8.52,9.38-15.51,8.55-6.38.16-12-1.91-17.54-4.13a37.51,37.51,0,0,0-16.53-2.9c-9.43.6-24.5,12.8-27.12,21.86-.24.82-.49,1.48.46,2.09,3.13,2,8.33,1,10-2.36,7.45-14.53,21.84-16.67,33.95-9.63,12.3,7.15,21.71,5.69,31.06-3.94,2.54-2.62,5.41-4.91,8.09-7.4,1.6-1.5,3.38-2.6,5.16-.69C235.64,563,234.41,564.5,232.94,565.85Zm-39.51,15.51c-5.26-2.71-10.34-6.05-17-5.37-7.19-1-11.92,2.69-15.43,8.86-1.39,2.43-1.06,3.16,1.64,3.91,10.92,3.06,20.9.15,30.71-4.35C195.76,583.33,195,582.19,193.43,581.36Z"/><path class="cls-2" d="M63.49,568.17c-8.31-10.67-21.66-15-33.17-5-6.88,6-15.1,8.76-24.07,9.62C4,573,1.51,573.28,1,570.47c-.55-3.22,2.12-3.12,4.3-3.27,10.58-.74,18.77-6.73,28-12.54-6.05-1.81-11.48-1.07-16.81-1.33-1.66-.08-3.33,0-5-.16a2.68,2.68,0,0,1-2.68-3,2.53,2.53,0,0,1,2.8-2.78c21.54-.38,43-.28,58,19.07a4.61,4.61,0,0,0,3.8,1.81c9.62.67,19.23,1.54,28.89,1,1.64-.09,4-1,4.38,1.77s-1.93,3.69-4.13,3.9a110.61,110.61,0,0,1-22.43-.08c-27.52-2.91-51.06,5.5-71.05,24.37-1.67,1.57-3.35,3.29-5.41,1.07C1.47,597.86,4,596.4,5.46,595c14.77-14.29,32.24-23.12,52.71-25.8.82-.11,1.64-.25,2.46-.4S62.25,568.44,63.49,568.17Z"/><path class="cls-2" d="M19.18,530.34a175,175,0,0,1,53.68,13.39c14.17,6.07,28.42,12,44.08,13.15,2.12.16,4.12.69,3.86,3.43s-2.51,2.17-4.24,2.09c-8.7-.41-17-2.64-25.18-5.56-16.21-5.8-31.81-13.35-48.77-17a160,160,0,0,0-21.07-3.54c-5.72-.46-11.28-.1-16.47,2.64-1.81,1-3.56,1.21-4.67-.93-1.24-2.38.69-3.31,2.27-4.14C7.62,531.28,13,530.36,19.18,530.34Z"/><path class="cls-2" d="M12.59,613.54c5.76-5.27,10.68-12,17.9-14.95,12.2-4.92,23.42-12.31,36.69-14.67a33.68,33.68,0,0,1,16.23.85c10.06,3.16,20.38,4.56,30.82,5.36,2.28.18,4.73.2,4.46,3.27s-2.92,2.79-5,2.25c-4.6-1.21-7,.58-9.36,4.65-7,12.26-16.29,21.76-31.45,23.37-6.2.66-11.87-.75-17.48-2.9A77.68,77.68,0,0,0,44.15,617c-6.76-1.46-12.11.29-16.12,6-1.24,1.76-2.69,3.93-5.2,2s-.42-3.75.77-5.4c3.87-5.38,8.52-9.37,15.51-8.54,6.38-.17,12,1.9,17.54,4.13a37.65,37.65,0,0,0,16.53,2.9c9.43-.6,24.5-12.81,27.12-21.86.24-.82.49-1.48-.46-2.1-3.13-2-8.34-1-10,2.37-7.45,14.52-21.84,16.67-33.95,9.63-12.3-7.15-21.71-5.69-31.06,3.93-2.54,2.62-5.42,4.92-8.09,7.41-1.6,1.49-3.38,2.6-5.17.68C9.9,616.43,11.13,614.88,12.59,613.54ZM52.11,598c5.26,2.71,10.33,6.05,17,5.36,7.19,1,11.92-2.69,15.43-8.85,1.39-2.44,1.06-3.16-1.64-3.92-10.92-3-20.9-.14-30.71,4.35C49.77,596.06,50.5,597.2,52.11,598Z"/><path class="cls-2" d="M107.15,460.15c-5.16,0-10.32,0-15.47,0-2.22,0-4.27-.53-4.44-2.93-.19-2.74,2.12-2.92,4.21-2.91,9.48,0,19,.13,28.43.1,10.62,0,18.2,5.11,22.7,14.31,9.27,18.95,9.48,38.34,1.41,57.78-2.86,6.9-8.72,10.17-15.7,11.64-13.17,2.77-26.35,3.81-39.21-1.35C76,531.55,68,518.33,69.93,505.73a14.4,14.4,0,0,1,5.15-9.35c5.77-4.67,13.29-2.89,16.54,4a44.79,44.79,0,0,1,2.94,8.43c2.51,10.62,15.09,15.71,25.9,7.29,14.06-10.95,9.63-31.64.54-39.73-5.09-4.54-11.53-4.63-17.85-4.67-1.31,0-3.12.21-3.38,2.26-.21,1.73.8,2.84,2,3.79,2.31,1.84,5.19,2.09,7.92,2.69,9,2,15.74,11.84,14,20.92-.92,4.77-3.67,8.08-8.72,9-4.88.92-9.65.76-13.87-2.14a8.85,8.85,0,0,1-3-11.45c1.94-3.59,4.93-4.72,8.82-3.46,1.3.42,2.53,1,2.75,2.53.26,1.72-.94,2.43-2.28,2.74-1.93.46-2.84,1.41-2.46,3.48s1.79,2.68,3.51,3c7.51,1.36,11.18-2.71,9.09-10-1.51-5.22-4.52-8.67-10.18-9.52A18.15,18.15,0,0,1,97.1,481c-2.64-2.52-3.77-5.49-2.72-9,1-3.34,3.55-5,6.89-5.71,11.93-2.59,25.27,4,30.42,15.67,5.72,13,4.33,25.33-4.93,36.32-7.54,8.94-22.15,10.12-31,2.85A18.08,18.08,0,0,1,90.09,512a67,67,0,0,0-2.49-7.53c-1.09-2.5-2.78-4.62-6-4.45-3.39.17-5,2.58-5.75,5.37-2.06,8,.71,14.78,6.44,20.27,7.25,7,16.42,9.07,26.11,9.06a96,96,0,0,0,19.74-2.33c5.64-1.19,9.6-4.32,11.54-9.82,5.9-16.83,6-33.48-1.5-49.92-3.63-8-9.51-12.56-18.6-12.38-4.15.08-8.31,0-12.46,0Z"/><path class="cls-2" d="M673.12,286.7c8.32,10.66,21.67,15,33.17,5,6.89-6,15.11-8.77,24.08-9.63,2.23-.22,4.73-.48,5.22,2.34.56,3.21-2.12,3.12-4.3,3.27-10.58.74-18.77,6.72-28,12.53,6.06,1.82,11.48,1.08,16.81,1.33,1.66.08,3.34,0,5,.17a2.67,2.67,0,0,1,2.68,3,2.54,2.54,0,0,1-2.8,2.79c-21.55.37-43,.28-58-19.08a4.63,4.63,0,0,0-3.79-1.81c-9.62-.67-19.23-1.54-28.9-1-1.63.1-4,1-4.38-1.77s1.94-3.68,4.13-3.9a111.34,111.34,0,0,1,22.43.08c27.52,2.92,51.07-5.5,71.06-24.37,1.67-1.57,3.34-3.29,5.4-1.07,2.26,2.43-.3,3.9-1.74,5.29-14.77,14.3-32.23,23.13-52.7,25.81-.83.11-1.65.24-2.47.4S674.37,286.42,673.12,286.7Z"/><path class="cls-2" d="M675.06,214.44c12.16-.1,24,3.25,36.2,3.13,2.33,0,4.66,0,7-.24,1.79-.16,3.55-.31,3.81,2s-1.16,3.16-3.27,3.53c-7.68,1.31-15.25-.06-22.83-.8-8.92-.87-17.78-2.48-26.79-1.93-14.12.85-25.67,7.31-35.91,16.52-7.29,6.56-14.48,13.24-21.68,19.89-1.82,1.69-3.86,3.33-5.91.88-1.87-2.24.55-3.58,2-4.78,10.69-9,19.64-19.89,31.28-27.8C649.84,217.38,661.93,214.15,675.06,214.44Z"/><path class="cls-2" d="M717.43,324.52a174.77,174.77,0,0,1-53.68-13.39c-14.17-6.07-28.42-12-44.07-13.15-2.13-.16-4.13-.69-3.86-3.43s2.51-2.17,4.23-2.09c8.71.42,17,2.65,25.18,5.56,16.21,5.8,31.81,13.35,48.77,17a163.56,163.56,0,0,0,21.08,3.54c5.71.45,11.27.09,16.47-2.65,1.8-1,3.55-1.21,4.67.93,1.24,2.38-.7,3.31-2.27,4.14C729,323.58,723.63,324.5,717.43,324.52Z"/><path class="cls-2" d="M724,241.32c-5.75,5.28-10.68,12.05-17.89,15-12.21,4.91-23.43,12.3-36.69,14.66a33.72,33.72,0,0,1-16.24-.85c-10.06-3.15-20.38-4.56-30.82-5.36-2.28-.17-4.73-.2-4.46-3.27s2.92-2.78,5-2.24c4.6,1.2,7-.59,9.36-4.66,7-12.26,16.28-21.75,31.45-23.37,6.19-.66,11.87.76,17.47,2.9a77.41,77.41,0,0,0,11.28,3.78c6.75,1.46,12.1-.29,16.12-6,1.24-1.76,2.68-3.92,5.19-2,2.66,2,.43,3.75-.76,5.4-3.88,5.39-8.53,9.38-15.52,8.55-6.38.16-12-1.91-17.54-4.14a37.8,37.8,0,0,0-16.53-2.9c-9.43.61-24.49,12.81-27.12,21.86-.23.83-.49,1.49.46,2.1,3.14,2,8.34,1,10.05-2.36,7.44-14.53,21.83-16.68,33.94-9.64,12.3,7.16,21.72,5.7,31.06-3.93,2.54-2.62,5.42-4.91,8.1-7.41,1.6-1.49,3.38-2.6,5.16-.68C726.71,238.43,725.49,240,724,241.32ZM684.5,256.83c-5.25-2.7-10.33-6-17-5.36-7.19-1-11.91,2.69-15.43,8.86-1.39,2.43-1.06,3.16,1.64,3.91,10.93,3.06,20.91.15,30.72-4.35C686.84,258.81,686.11,257.66,684.5,256.83Z"/><path class="cls-2" d="M554.57,243.65c-8.32-10.67-21.67-15-33.17-5-6.89,6-15.11,8.76-24.08,9.62-2.23.22-4.73.48-5.22-2.34-.56-3.21,2.12-3.11,4.3-3.27,10.57-.73,18.77-6.72,28-12.53-6.06-1.82-11.49-1.08-16.81-1.33-1.67-.08-3.34,0-5-.17a2.67,2.67,0,0,1-2.68-3,2.54,2.54,0,0,1,2.8-2.79c21.55-.37,43-.28,58,19.08a4.63,4.63,0,0,0,3.79,1.81c9.62.67,19.23,1.54,28.9,1,1.63-.1,4-1.05,4.38,1.77s-1.94,3.68-4.13,3.9a110.61,110.61,0,0,1-22.43-.08c-27.52-2.91-51.07,5.5-71.06,24.37-1.67,1.57-3.34,3.29-5.4,1.07-2.26-2.43.3-3.9,1.74-5.29,14.77-14.3,32.23-23.13,52.7-25.81.83-.1,1.65-.24,2.46-.4S553.32,243.92,554.57,243.65Z"/><path class="cls-2" d="M552.63,315.9c-12.17.1-24-3.25-36.2-3.13-2.33,0-4.66,0-7,.24-1.79.16-3.55.31-3.81-2s1.16-3.16,3.27-3.52c7.68-1.32,15.25.05,22.83.79,8.92.87,17.77,2.48,26.79,1.94,14.12-.86,25.67-7.32,35.91-16.53,7.29-6.56,14.48-13.24,21.68-19.89,1.82-1.69,3.86-3.33,5.91-.88,1.87,2.24-.55,3.58-2,4.78-10.69,9-19.64,19.89-31.28,27.8C577.85,313,565.76,316.19,552.63,315.9Z"/><path class="cls-2" d="M510.26,205.82a174.77,174.77,0,0,1,53.68,13.39c14.17,6.07,28.42,12,44.07,13.15,2.13.16,4.13.69,3.86,3.43s-2.51,2.17-4.23,2.09c-8.71-.41-17-2.65-25.18-5.56-16.21-5.8-31.81-13.35-48.78-17a161.45,161.45,0,0,0-21.07-3.55c-5.71-.45-11.27-.09-16.47,2.65-1.8,1-3.56,1.21-4.67-.93-1.24-2.38.69-3.31,2.27-4.14C498.7,206.76,504.06,205.84,510.26,205.82Z"/><path class="cls-2" d="M503.67,289c5.75-5.27,10.68-12,17.89-15,12.21-4.91,23.43-12.3,36.69-14.66a33.72,33.72,0,0,1,16.24.85c10.06,3.16,20.38,4.56,30.82,5.36,2.27.17,4.73.2,4.46,3.27s-2.92,2.79-5,2.25c-4.6-1.21-7,.58-9.36,4.65-7,12.26-16.28,21.76-31.45,23.37-6.19.66-11.87-.75-17.48-2.9a76.88,76.88,0,0,0-11.27-3.78c-6.75-1.46-12.1.29-16.12,6-1.24,1.76-2.69,3.92-5.19,2-2.66-2-.43-3.75.76-5.4,3.88-5.38,8.53-9.37,15.52-8.55,6.38-.16,12,1.91,17.53,4.14a37.7,37.7,0,0,0,16.54,2.9c9.42-.61,24.49-12.81,27.12-21.86.23-.83.49-1.49-.46-2.1-3.14-2-8.34-1-10,2.36-7.44,14.53-21.84,16.68-33.94,9.64-12.3-7.15-21.72-5.7-31.06,3.93-2.55,2.62-5.42,4.91-8.1,7.41-1.6,1.49-3.38,2.6-5.16.68C501,291.91,502.2,290.36,503.67,289Zm39.51-15.51c5.26,2.71,10.34,6.05,17,5.36,7.18,1,11.91-2.69,15.43-8.85,1.39-2.44,1.06-3.16-1.64-3.92C563,263.05,553,266,543.21,270.45,540.85,271.53,541.58,272.68,543.18,273.51Z"/><path class="cls-2" d="M598.22,135.63c-5.15,0-10.31,0-15.47,0-2.22,0-4.26-.54-4.43-2.93-.19-2.74,2.11-2.92,4.2-2.91,9.48,0,19,.13,28.44.1,10.62,0,18.19,5.11,22.69,14.31,9.27,18.95,9.49,38.34,1.42,57.78-2.87,6.9-8.72,10.17-15.7,11.64-13.18,2.77-26.35,3.81-39.22-1.35C567,207,559,193.8,561,181.21a14.4,14.4,0,0,1,5.15-9.35c5.77-4.67,13.29-2.9,16.53,4a43.33,43.33,0,0,1,2.94,8.42c2.51,10.63,15.09,15.72,25.91,7.3,14.06-11,9.63-31.64.54-39.74-5.1-4.53-11.53-4.62-17.85-4.66-1.32,0-3.13.21-3.38,2.26-.22,1.73.79,2.84,2,3.78,2.3,1.84,5.19,2.1,7.92,2.7,9,2,15.73,11.84,14,20.92-.92,4.76-3.67,8.08-8.72,9-4.88.92-9.65.76-13.87-2.14a8.85,8.85,0,0,1-3-11.45c2-3.59,4.94-4.72,8.82-3.46,1.31.42,2.53,1,2.76,2.53.25,1.72-.94,2.43-2.28,2.74-1.94.46-2.84,1.41-2.46,3.48s1.79,2.68,3.5,3c7.51,1.36,11.19-2.71,9.09-10-1.5-5.22-4.52-8.68-10.18-9.52a18.21,18.21,0,0,1-10.26-4.62c-2.63-2.52-3.76-5.5-2.72-9s3.55-5,6.9-5.71c11.93-2.59,25.26,4,30.42,15.67,5.72,13,4.32,25.33-4.93,36.31-7.54,9-22.16,10.12-31,2.86a18.13,18.13,0,0,1-5.68-9.16,69.64,69.64,0,0,0-2.48-7.52c-1.1-2.5-2.78-4.62-6-4.46-3.4.18-5,2.59-5.75,5.38-2.06,8,.7,14.77,6.43,20.27,7.25,7,16.43,9.06,26.12,9.06a96,96,0,0,0,19.73-2.33c5.65-1.19,9.61-4.33,11.54-9.83,5.91-16.82,6-33.48-1.5-49.91-3.63-8-9.5-12.56-18.59-12.39-4.16.09-8.31,0-12.47,0Z"/><path class="cls-2" d="M427.59,351.6c8.31,10.67,21.66,15,33.16,5,6.89-6,15.11-8.76,24.08-9.63,2.23-.21,4.73-.47,5.22,2.34.56,3.22-2.12,3.12-4.3,3.27-10.57.74-18.77,6.72-28,12.54,6.06,1.81,11.49,1.07,16.82,1.33,1.66.08,3.33,0,5,.16a2.68,2.68,0,0,1,2.68,3,2.54,2.54,0,0,1-2.8,2.78c-21.54.37-43,.28-58-19.07a4.59,4.59,0,0,0-3.79-1.81c-9.62-.68-19.23-1.55-28.9-1-1.63.1-4,1.05-4.38-1.76-.39-3,1.94-3.69,4.13-3.9a110.61,110.61,0,0,1,22.43.08c27.53,2.91,51.07-5.51,71.06-24.37,1.67-1.58,3.35-3.29,5.4-1.07,2.26,2.43-.3,3.89-1.74,5.28-14.77,14.3-32.23,23.13-52.7,25.81-.83.11-1.65.24-2.46.4S428.83,351.32,427.59,351.6Z"/><path class="cls-2" d="M429.52,279.35c12.17-.1,24,3.24,36.2,3.12,2.33,0,4.66,0,7-.24,1.78-.15,3.54-.31,3.8,2s-1.15,3.17-3.27,3.53c-7.68,1.32-15.25-.05-22.83-.79-8.92-.87-17.77-2.49-26.79-1.94-14.12.86-25.67,7.31-35.91,16.53-7.29,6.56-14.47,13.23-21.68,19.89-1.82,1.68-3.86,3.32-5.91.87-1.87-2.24.55-3.57,2-4.78,10.7-9,19.64-19.88,31.28-27.8C404.3,282.28,416.39,279.06,429.52,279.35Z"/><path class="cls-2" d="M471.89,389.43A175.34,175.34,0,0,1,418.21,376c-14.17-6.07-28.42-12-44.07-13.15-2.13-.16-4.13-.69-3.86-3.43s2.51-2.18,4.24-2.09c8.7.41,17,2.64,25.17,5.56,16.21,5.79,31.81,13.35,48.78,17a163.12,163.12,0,0,0,21.07,3.54c5.71.46,11.28.09,16.47-2.65,1.8-.95,3.56-1.2,4.67.94,1.24,2.38-.69,3.31-2.27,4.14C483.45,388.49,478.09,389.41,471.89,389.43Z"/><path class="cls-2" d="M478.48,306.23c-5.75,5.27-10.67,12-17.89,14.95-12.21,4.92-23.43,12.3-36.69,14.66a33.72,33.72,0,0,1-16.24-.84c-10.05-3.16-20.38-4.56-30.82-5.36-2.27-.18-4.72-.2-4.46-3.27s2.92-2.79,5-2.25c4.6,1.2,7-.58,9.36-4.66,7-12.25,16.28-21.75,31.45-23.37,6.19-.66,11.87.76,17.48,2.91a77.28,77.28,0,0,0,11.27,3.78c6.76,1.45,12.1-.29,16.12-6,1.24-1.76,2.69-3.93,5.19-2,2.66,2,.43,3.74-.76,5.4-3.87,5.38-8.53,9.37-15.52,8.54-6.38.17-12-1.91-17.53-4.13a37.53,37.53,0,0,0-16.54-2.9c-9.42.6-24.49,12.8-27.11,21.86-.24.82-.49,1.48.45,2.09,3.14,2,8.34,1,10-2.36,7.45-14.52,21.84-16.67,34-9.63,12.3,7.15,21.71,5.69,31-3.93,2.55-2.62,5.42-4.92,8.1-7.41,1.6-1.5,3.38-2.6,5.16-.68C481.17,303.33,480,304.88,478.48,306.23ZM439,321.74c-5.26-2.71-10.34-6.05-17-5.36-7.19-1-11.92,2.69-15.44,8.85-1.38,2.43-1.06,3.16,1.64,3.91,10.93,3.06,20.91.15,30.72-4.35C441.3,323.71,440.58,322.57,439,321.74Z"/><path class="cls-2" d="M309,308.55c-8.32-10.67-21.66-15-33.17-5-6.89,6-15.11,8.76-24.07,9.63-2.24.21-4.74.47-5.23-2.34-.55-3.21,2.12-3.12,4.3-3.27,10.58-.74,18.77-6.72,28-12.54-6.06-1.81-11.48-1.07-16.81-1.33-1.66-.08-3.34,0-5-.16a2.67,2.67,0,0,1-2.67-3,2.53,2.53,0,0,1,2.79-2.78c21.55-.37,43-.28,58,19.07a4.61,4.61,0,0,0,3.8,1.81c9.62.68,19.22,1.55,28.89,1,1.63-.1,4-1,4.38,1.76s-1.94,3.69-4.13,3.9a111.34,111.34,0,0,1-22.43-.07c-27.52-2.92-51.07,5.5-71.06,24.36-1.67,1.58-3.34,3.29-5.4,1.07-2.25-2.43.3-3.89,1.74-5.28,14.77-14.3,32.24-23.13,52.71-25.81.82-.11,1.64-.24,2.46-.4S307.78,308.83,309,308.55Z"/><path class="cls-2" d="M307.09,380.8c-12.16.1-24-3.24-36.2-3.12-2.32,0-4.66,0-7,.24-1.78.15-3.55.31-3.81-2s1.16-3.17,3.28-3.53c7.67-1.32,15.24,0,22.82.79,8.92.87,17.78,2.49,26.8,1.94,14.11-.86,25.66-7.31,35.91-16.53,7.29-6.56,14.47-13.23,21.67-19.89,1.82-1.68,3.86-3.32,5.91-.87,1.87,2.24-.55,3.57-2,4.78-10.69,9-19.64,19.88-31.28,27.8C332.31,377.87,320.22,381.09,307.09,380.8Z"/><path class="cls-2" d="M264.72,270.72a175.34,175.34,0,0,1,53.68,13.39c14.17,6.07,28.42,12,44.07,13.15,2.13.16,4.13.69,3.86,3.43s-2.51,2.18-4.23,2.09c-8.71-.41-17-2.64-25.18-5.56-16.21-5.79-31.81-13.35-48.77-17a163.27,163.27,0,0,0-21.08-3.54c-5.71-.46-11.27-.09-16.46,2.65-1.81.95-3.56,1.2-4.68-.94-1.24-2.38.7-3.31,2.27-4.14C253.16,271.66,258.52,270.74,264.72,270.72Z"/><path class="cls-2" d="M258.13,353.92c5.76-5.27,10.68-12,17.9-14.95,12.2-4.92,23.42-12.3,36.69-14.66a33.69,33.69,0,0,1,16.23.84c10.06,3.16,20.38,4.56,30.82,5.36,2.28.18,4.73.2,4.46,3.27s-2.92,2.79-5,2.25c-4.6-1.2-7,.58-9.36,4.66-7,12.25-16.28,21.75-31.44,23.37-6.2.66-11.88-.76-17.48-2.91a77.41,77.41,0,0,0-11.28-3.78c-6.75-1.45-12.1.29-16.12,6-1.23,1.76-2.68,3.93-5.19,2-2.66-2-.43-3.74.76-5.4,3.88-5.38,8.53-9.37,15.52-8.54,6.38-.17,12,1.91,17.54,4.13a37.51,37.51,0,0,0,16.53,2.9c9.43-.6,24.49-12.8,27.12-21.86.24-.82.49-1.48-.46-2.09-3.14-2-8.34-1-10,2.36-7.45,14.52-21.84,16.67-33.95,9.63-12.3-7.15-21.71-5.69-31.06,3.93-2.54,2.62-5.42,4.92-8.09,7.41-1.61,1.5-3.38,2.6-5.17.68C255.44,356.82,256.67,355.27,258.13,353.92Zm39.52-15.51c5.25,2.71,10.33,6,17,5.36,7.19,1,11.92-2.69,15.43-8.85,1.39-2.43,1.06-3.16-1.64-3.91-10.93-3.06-20.91-.15-30.72,4.35C295.31,336.44,296,337.58,297.65,338.41Z"/><path class="cls-2" d="M352.68,200.53c-5.15,0-10.31,0-15.46,0-2.22,0-4.27-.53-4.44-2.93-.19-2.74,2.12-2.91,4.21-2.91,9.47,0,18.95.13,28.43.11,10.62,0,18.19,5.1,22.69,14.3,9.28,18.95,9.49,38.34,1.42,57.78-2.87,6.9-8.72,10.17-15.7,11.64-13.17,2.78-26.35,3.81-39.21-1.35-13.12-5.25-21.13-18.48-19.15-31.08a14.4,14.4,0,0,1,5.15-9.35c5.77-4.67,13.29-2.89,16.54,4a44,44,0,0,1,2.93,8.42c2.52,10.62,15.1,15.71,25.91,7.29,14.06-10.95,9.63-31.64.54-39.73-5.1-4.54-11.53-4.63-17.85-4.66-1.31,0-3.12.21-3.38,2.26-.22,1.72.79,2.83,2,3.78,2.31,1.84,5.19,2.09,7.92,2.69,9,2,15.73,11.84,14,20.92-.92,4.77-3.67,8.08-8.72,9-4.88.91-9.65.75-13.87-2.15a8.83,8.83,0,0,1-3-11.45c1.94-3.59,4.93-4.71,8.81-3.46,1.31.42,2.53,1,2.76,2.53s-.94,2.43-2.28,2.75c-1.94.45-2.84,1.4-2.46,3.47s1.79,2.68,3.51,3c7.5,1.35,11.18-2.71,9.09-10-1.51-5.22-4.53-8.67-10.19-9.52a18.2,18.2,0,0,1-10.26-4.61c-2.63-2.53-3.76-5.5-2.72-9,1-3.34,3.55-5,6.9-5.71,11.93-2.59,25.26,4,30.42,15.67,5.72,13,4.32,25.33-4.93,36.32-7.54,8.95-22.15,10.12-31,2.86a18.16,18.16,0,0,1-5.67-9.16,69.14,69.14,0,0,0-2.49-7.53c-1.09-2.5-2.78-4.61-6-4.45-3.4.17-5,2.58-5.75,5.38-2.06,8,.71,14.77,6.43,20.26,7.25,7,16.43,9.07,26.12,9.07a96.16,96.16,0,0,0,19.74-2.34c5.64-1.18,9.6-4.32,11.53-9.82,5.91-16.83,6-33.48-1.49-49.91-3.64-8-9.51-12.57-18.6-12.39-4.15.08-8.31,0-12.47,0Z"/><path class="cls-2" d="M182.05,416.5c8.31,10.67,21.66,15,33.16,5,6.89-6,15.11-8.76,24.08-9.62,2.23-.22,4.74-.48,5.22,2.34.56,3.21-2.11,3.11-4.3,3.27-10.57.73-18.77,6.72-28,12.53,6.05,1.82,11.48,1.08,16.81,1.33,1.66.08,3.33,0,5,.17a2.66,2.66,0,0,1,2.68,3,2.54,2.54,0,0,1-2.8,2.79c-21.54.37-43,.28-58-19.08a4.64,4.64,0,0,0-3.8-1.81c-9.62-.67-19.23-1.54-28.89-1-1.64.1-4,1-4.38-1.77s1.93-3.68,4.13-3.9a111.34,111.34,0,0,1,22.43.08c27.52,2.91,51.06-5.5,71-24.37,1.67-1.57,3.35-3.29,5.4-1.07,2.26,2.43-.3,3.9-1.74,5.29-14.76,14.3-32.23,23.13-52.7,25.81-.82.1-1.65.24-2.46.4S183.29,416.23,182.05,416.5Z"/><path class="cls-2" d="M184,344.25c12.17-.1,24,3.25,36.2,3.13,2.33,0,4.66,0,7-.24,1.78-.16,3.54-.31,3.8,2s-1.15,3.16-3.27,3.52c-7.67,1.32-15.24-.05-22.83-.79-8.91-.87-17.77-2.48-26.79-1.94-14.11.86-25.67,7.32-35.91,16.53-7.29,6.56-14.47,13.24-21.67,19.89-1.83,1.69-3.86,3.33-5.91.88-1.88-2.24.54-3.58,2-4.78,10.69-9,19.63-19.89,31.27-27.8A60.2,60.2,0,0,1,184,344.25Z"/><path class="cls-2" d="M226.35,454.33a174.77,174.77,0,0,1-53.68-13.39c-14.16-6.07-28.42-12-44.07-13.15-2.13-.16-4.12-.69-3.86-3.43s2.51-2.17,4.24-2.09c8.7.41,17,2.65,25.17,5.56,16.22,5.8,31.81,13.35,48.78,17A163.12,163.12,0,0,0,224,448.36c5.71.45,11.28.09,16.47-2.65,1.81-1,3.56-1.21,4.67.93,1.24,2.38-.69,3.31-2.27,4.14C237.92,453.39,232.55,454.31,226.35,454.33Z"/><path class="cls-2" d="M232.94,371.13c-5.75,5.28-10.67,12.05-17.89,15-12.2,4.91-23.43,12.3-36.69,14.66a33.68,33.68,0,0,1-16.23-.85c-10.06-3.16-20.39-4.56-30.83-5.36-2.27-.17-4.72-.2-4.45-3.27s2.92-2.79,5-2.25c4.6,1.21,7-.58,9.36-4.65,7-12.26,16.28-21.75,31.45-23.37,6.19-.66,11.87.75,17.48,2.9a77.28,77.28,0,0,0,11.27,3.78c6.76,1.46,12.1-.29,16.12-6,1.24-1.76,2.69-3.92,5.2-2s.42,3.75-.77,5.4c-3.87,5.38-8.52,9.37-15.51,8.55-6.38.16-12-1.91-17.54-4.14a37.65,37.65,0,0,0-16.53-2.9c-9.43.61-24.5,12.81-27.12,21.86-.24.83-.49,1.49.46,2.1,3.13,2,8.33,1,10-2.36,7.45-14.53,21.84-16.68,33.95-9.64,12.3,7.15,21.71,5.7,31.06-3.93,2.54-2.62,5.41-4.91,8.09-7.41,1.6-1.49,3.38-2.6,5.16-.68C235.64,368.24,234.41,369.79,232.94,371.13Zm-39.51,15.51c-5.26-2.71-10.34-6.05-17-5.36-7.19-1-11.92,2.69-15.43,8.85-1.39,2.44-1.06,3.16,1.64,3.92,10.92,3.05,20.9.14,30.71-4.35C195.76,388.62,195,387.47,193.43,386.64Z"/><path class="cls-2" d="M63.49,373.46c-8.31-10.67-21.66-15-33.17-5-6.88,6-15.1,8.77-24.07,9.63-2.23.22-4.74.48-5.23-2.34-.55-3.21,2.12-3.12,4.3-3.27,10.58-.74,18.77-6.72,28-12.53-6.05-1.82-11.48-1.08-16.81-1.33-1.66-.08-3.33,0-5-.17a2.66,2.66,0,0,1-2.68-3,2.54,2.54,0,0,1,2.8-2.79c21.54-.37,43-.28,58,19.08a4.64,4.64,0,0,0,3.8,1.81c9.62.67,19.23,1.54,28.89,1,1.64-.1,4-1.05,4.38,1.77s-1.93,3.68-4.13,3.9a111.34,111.34,0,0,1-22.43-.08c-27.52-2.91-51.06,5.5-71.05,24.37-1.67,1.57-3.35,3.29-5.41,1.07-2.25-2.43.31-3.9,1.74-5.29C20.23,386,37.7,377.16,58.17,374.48c.82-.11,1.64-.24,2.46-.4S62.25,373.73,63.49,373.46Z"/><path class="cls-2" d="M61.56,445.71c-12.17.1-24-3.25-36.21-3.13-2.32,0-4.66,0-7,.24-1.78.16-3.55.31-3.81-2s1.16-3.16,3.28-3.53c7.67-1.31,15.24.06,22.83.8,8.91.87,17.77,2.48,26.79,1.93,14.11-.85,25.67-7.31,35.91-16.52,7.29-6.56,14.47-13.24,21.67-19.89,1.82-1.69,3.86-3.33,5.91-.88,1.87,2.24-.54,3.58-2,4.78-10.69,9-19.64,19.89-31.27,27.8A60.22,60.22,0,0,1,61.56,445.71Z"/><path class="cls-2" d="M19.18,335.63A174.69,174.69,0,0,1,72.86,349c14.17,6.07,28.42,12,44.08,13.15,2.12.16,4.12.69,3.86,3.43s-2.51,2.17-4.24,2.09c-8.7-.42-17-2.65-25.18-5.56-16.21-5.8-31.81-13.35-48.77-17a163.41,163.41,0,0,0-21.07-3.54c-5.72-.45-11.28-.09-16.47,2.65-1.81,1-3.56,1.21-4.67-.93-1.24-2.38.69-3.31,2.27-4.14C7.62,336.57,13,335.65,19.18,335.63Z"/><path class="cls-2" d="M12.59,418.83c5.76-5.28,10.68-12.05,17.9-15,12.2-4.91,23.42-12.3,36.69-14.66a33.68,33.68,0,0,1,16.23.85c10.06,3.15,20.38,4.56,30.82,5.36,2.28.17,4.73.2,4.46,3.27s-2.92,2.78-5,2.24c-4.6-1.2-7,.59-9.36,4.66-7,12.26-16.29,21.75-31.45,23.37-6.2.66-11.87-.76-17.48-2.9a77.68,77.68,0,0,0-11.27-3.78c-6.76-1.46-12.11.29-16.12,6-1.24,1.76-2.69,3.92-5.2,2s-.42-3.75.77-5.4c3.87-5.39,8.52-9.38,15.51-8.55,6.38-.16,12,1.91,17.54,4.14a37.8,37.8,0,0,0,16.53,2.9c9.43-.61,24.5-12.81,27.12-21.86.24-.83.49-1.49-.46-2.1-3.13-2-8.34-1-10,2.36C82.35,416.35,68,418.5,55.85,411.46c-12.3-7.16-21.71-5.7-31.06,3.93-2.54,2.62-5.42,4.91-8.09,7.41-1.6,1.49-3.38,2.6-5.17.68C9.9,421.72,11.13,420.17,12.59,418.83Zm39.52-15.51c5.26,2.7,10.33,6,17,5.36,7.19,1,11.92-2.69,15.43-8.86,1.39-2.43,1.06-3.16-1.64-3.91-10.92-3.06-20.9-.15-30.71,4.35C49.77,401.34,50.5,402.49,52.11,403.32Z"/><path class="cls-2" d="M107.15,265.44c-5.16,0-10.32-.05-15.47,0-2.22,0-4.27-.53-4.44-2.92-.19-2.74,2.12-2.92,4.21-2.91,9.48,0,19,.13,28.43.1,10.62,0,18.2,5.11,22.7,14.31,9.27,19,9.48,38.34,1.41,57.77-2.86,6.91-8.72,10.18-15.7,11.65-13.17,2.77-26.35,3.81-39.21-1.35C76,336.84,68,323.61,69.93,311a14.44,14.44,0,0,1,5.15-9.36c5.77-4.67,13.29-2.89,16.54,4a44.7,44.7,0,0,1,2.94,8.42c2.51,10.63,15.09,15.72,25.9,7.3,14.06-10.95,9.63-31.64.54-39.74-5.09-4.54-11.53-4.62-17.85-4.66-1.31,0-3.12.21-3.38,2.26-.21,1.73.8,2.83,2,3.78,2.31,1.84,5.19,2.1,7.92,2.69,9,2,15.74,11.85,14,20.92-.92,4.77-3.67,8.09-8.72,9-4.88.91-9.65.76-13.87-2.14a8.85,8.85,0,0,1-3-11.45c1.94-3.6,4.93-4.72,8.82-3.46,1.3.42,2.53,1,2.75,2.52.26,1.73-.94,2.43-2.28,2.75-1.93.45-2.84,1.41-2.46,3.48s1.79,2.68,3.51,3c7.51,1.36,11.18-2.71,9.09-10-1.51-5.23-4.52-8.68-10.18-9.52a18.15,18.15,0,0,1-10.26-4.62c-2.64-2.52-3.77-5.5-2.72-9,1-3.33,3.55-5,6.89-5.71,11.93-2.59,25.27,4,30.42,15.68,5.72,13,4.33,25.33-4.93,36.31-7.54,8.95-22.15,10.12-31,2.86a18.07,18.07,0,0,1-5.68-9.16,67.56,67.56,0,0,0-2.49-7.52c-1.09-2.5-2.78-4.62-6-4.46-3.39.18-5,2.59-5.75,5.38-2.06,8,.71,14.77,6.44,20.27,7.25,6.95,16.42,9.06,26.11,9.06a96,96,0,0,0,19.74-2.33c5.64-1.19,9.6-4.33,11.54-9.83,5.9-16.82,6-33.48-1.5-49.91-3.63-8-9.51-12.56-18.6-12.39-4.15.08-8.31,0-12.46,0Z"/><path class="cls-2" d="M673.12,92c8.32,10.67,21.67,15,33.17,5,6.89-6,15.11-8.76,24.08-9.62,2.23-.22,4.73-.48,5.22,2.33.56,3.22-2.12,3.12-4.3,3.27-10.58.74-18.77,6.73-28,12.54,6.06,1.81,11.48,1.07,16.81,1.33,1.66.08,3.34,0,5,.16a2.69,2.69,0,0,1,2.68,3,2.53,2.53,0,0,1-2.8,2.78c-21.55.38-43,.28-58-19.07a4.6,4.6,0,0,0-3.79-1.81c-9.62-.67-19.23-1.54-28.9-1-1.63.09-4,1-4.38-1.77s1.94-3.69,4.13-3.9a110.61,110.61,0,0,1,22.43.08c27.52,2.91,51.07-5.5,71.06-24.37,1.67-1.57,3.34-3.29,5.4-1.07,2.26,2.43-.3,3.89-1.74,5.29-14.77,14.3-32.23,23.12-52.7,25.8-.83.11-1.65.25-2.47.4S674.37,91.71,673.12,92Z"/><path class="cls-2" d="M675.06,19.73c12.16-.1,24,3.24,36.2,3.12,2.33,0,4.66,0,7-.23,1.79-.16,3.55-.32,3.81,2s-1.16,3.16-3.27,3.52c-7.68,1.32-15.25-.05-22.83-.79-8.92-.87-17.78-2.49-26.79-1.94-14.12.86-25.67,7.31-35.91,16.53-7.29,6.56-14.48,13.24-21.68,19.89-1.82,1.68-3.86,3.33-5.91.87-1.87-2.23.55-3.57,2-4.77,10.69-9,19.64-19.89,31.28-27.81A60.24,60.24,0,0,1,675.06,19.73Z"/><path class="cls-2" d="M717.43,129.81a174.77,174.77,0,0,1-53.68-13.39c-14.17-6.07-28.42-12-44.07-13.15-2.13-.16-4.13-.69-3.86-3.43s2.51-2.17,4.23-2.09c8.71.41,17,2.64,25.18,5.56,16.21,5.8,31.81,13.35,48.77,17a160.18,160.18,0,0,0,21.08,3.54c5.71.46,11.27.1,16.47-2.64,1.8-1,3.55-1.21,4.67.93,1.24,2.38-.7,3.31-2.27,4.14C729,128.87,723.63,129.79,717.43,129.81Z"/><path class="cls-2" d="M724,46.61c-5.75,5.27-10.68,12-17.89,15-12.21,4.92-23.43,12.31-36.69,14.67a33.72,33.72,0,0,1-16.24-.85c-10.06-3.16-20.38-4.56-30.82-5.36-2.28-.18-4.73-.2-4.46-3.27s2.92-2.79,5-2.25c4.6,1.21,7-.58,9.36-4.65,7-12.26,16.28-21.76,31.45-23.37,6.19-.66,11.87.75,17.47,2.9a77.41,77.41,0,0,0,11.28,3.78c6.75,1.46,12.1-.29,16.12-6,1.24-1.76,2.68-3.93,5.19-2,2.66,2,.43,3.75-.76,5.4-3.88,5.38-8.53,9.37-15.52,8.54-6.38.17-12-1.9-17.54-4.13A37.65,37.65,0,0,0,663.43,42c-9.43.6-24.49,12.81-27.12,21.86-.23.82-.49,1.48.46,2.1,3.14,2,8.34,1,10.05-2.37,7.44-14.52,21.83-16.67,33.94-9.63,12.3,7.15,21.72,5.69,31.06-3.93,2.54-2.62,5.42-4.92,8.1-7.41,1.6-1.49,3.38-2.6,5.16-.68C726.71,43.72,725.49,45.27,724,46.61ZM684.5,62.12c-5.25-2.71-10.33-6-17-5.36-7.19-1-11.91,2.69-15.43,8.85-1.39,2.44-1.06,3.16,1.64,3.92,10.93,3,20.91.14,30.72-4.35C686.84,64.09,686.11,63,684.5,62.12Z"/><path class="cls-2" d="M554.57,48.93c-8.32-10.66-21.67-15-33.17-5-6.89,6-15.11,8.76-24.08,9.63-2.23.21-4.73.47-5.22-2.34-.56-3.21,2.12-3.12,4.3-3.27,10.57-.74,18.77-6.72,28-12.53-6.06-1.82-11.49-1.08-16.81-1.33-1.67-.08-3.34,0-5-.17A2.67,2.67,0,0,1,500,31a2.54,2.54,0,0,1,2.8-2.79c21.55-.37,43-.28,58,19.08a4.59,4.59,0,0,0,3.79,1.8c9.62.68,19.23,1.55,28.9,1,1.63-.1,4-1.05,4.38,1.77s-1.94,3.68-4.13,3.89a111.34,111.34,0,0,1-22.43-.07C543.74,52.7,520.19,61.12,500.2,80c-1.67,1.58-3.34,3.29-5.4,1.08-2.26-2.44.3-3.9,1.74-5.29,14.77-14.3,32.23-23.13,52.7-25.81.83-.11,1.65-.24,2.46-.4S553.32,49.21,554.57,48.93Z"/><path class="cls-2" d="M552.63,121.18c-12.17.11-24-3.24-36.2-3.12-2.33,0-4.66,0-7,.24-1.79.15-3.55.31-3.81-2s1.16-3.16,3.27-3.53c7.68-1.31,15.25.06,22.83.8,8.92.87,17.77,2.48,26.79,1.93,14.12-.85,25.67-7.31,35.91-16.52,7.29-6.56,14.48-13.24,21.68-19.9,1.82-1.68,3.86-3.32,5.91-.87,1.87,2.24-.55,3.57-2,4.78-10.69,9-19.64,19.88-31.28,27.8C577.85,118.25,565.76,121.47,552.63,121.18Z"/><path class="cls-2" d="M510.26,11.11a175,175,0,0,1,53.68,13.38c14.17,6.08,28.42,12,44.07,13.16,2.13.15,4.13.68,3.86,3.43s-2.51,2.17-4.23,2.09c-8.71-.42-17-2.65-25.18-5.56-16.21-5.8-31.81-13.36-48.78-17a163.12,163.12,0,0,0-21.07-3.54c-5.71-.45-11.27-.09-16.47,2.65-1.8.95-3.56,1.2-4.67-.93-1.24-2.39.69-3.31,2.27-4.15C498.7,12,504.06,11.13,510.26,11.11Z"/><path class="cls-2" d="M503.67,94.3c5.75-5.27,10.68-12,17.89-15,12.21-4.91,23.43-12.3,36.69-14.66a33.72,33.72,0,0,1,16.24.85c10.06,3.15,20.38,4.56,30.82,5.36,2.27.17,4.73.2,4.46,3.27s-2.92,2.78-5,2.24c-4.6-1.2-7,.58-9.36,4.66-7,12.26-16.28,21.75-31.45,23.37-6.19.66-11.87-.76-17.48-2.9a74.58,74.58,0,0,0-11.27-3.78c-6.75-1.46-12.1.29-16.12,6-1.24,1.77-2.69,3.93-5.19,2-2.66-2-.43-3.74.76-5.39,3.88-5.39,8.53-9.38,15.52-8.55,6.38-.16,12,1.91,17.53,4.13a37.55,37.55,0,0,0,16.54,2.9c9.42-.6,24.49-12.8,27.12-21.86.23-.82.49-1.48-.46-2.09-3.14-2-8.34-1-10,2.36C573.43,91.83,559,94,546.93,86.93c-12.3-7.15-21.72-5.69-31.06,3.94-2.55,2.62-5.42,4.91-8.1,7.41-1.6,1.49-3.38,2.59-5.16.68C501,97.2,502.2,95.65,503.67,94.3Zm39.51-15.51c5.26,2.71,10.34,6,17,5.37,7.18,1,11.91-2.69,15.43-8.86,1.39-2.43,1.06-3.16-1.64-3.91C563,68.33,553,71.24,543.21,75.74,540.85,76.82,541.58,78,543.18,78.79Z"/><path class="cls-2" d="M598.22-59.09c-5.15,0-10.31,0-15.47,0-2.22,0-4.26-.53-4.43-2.92-.19-2.74,2.11-2.92,4.2-2.91,9.48,0,19,.13,28.44.1,10.62,0,18.19,5.11,22.69,14.3,9.27,19,9.49,38.35,1.42,57.78-2.87,6.9-8.72,10.18-15.7,11.65-13.18,2.77-26.35,3.8-39.22-1.35C567,12.32,559-.91,561-13.5a14.42,14.42,0,0,1,5.15-9.36c5.77-4.67,13.29-2.89,16.53,4a43.33,43.33,0,0,1,2.94,8.42C588.14.22,600.72,5.32,611.54-3.1c14.06-11,9.63-31.65.54-39.74-5.1-4.54-11.53-4.62-17.85-4.66-1.32,0-3.13.21-3.38,2.26-.22,1.72.79,2.83,2,3.78,2.3,1.84,5.19,2.09,7.92,2.69,9,2,15.73,11.85,14,20.92-.92,4.77-3.67,8.08-8.72,9-4.88.91-9.65.75-13.87-2.15a8.84,8.84,0,0,1-3-11.45c2-3.59,4.94-4.71,8.82-3.46,1.31.42,2.53,1,2.76,2.53.25,1.72-.94,2.43-2.28,2.75-1.94.45-2.84,1.4-2.46,3.47s1.79,2.69,3.5,3c7.51,1.36,11.19-2.71,9.09-10-1.5-5.22-4.52-8.67-10.18-9.51a18.21,18.21,0,0,1-10.26-4.62c-2.63-2.52-3.76-5.5-2.72-9,1-3.33,3.55-5,6.9-5.71,11.93-2.59,25.26,4,30.42,15.67,5.72,13,4.32,25.33-4.93,36.32-7.54,9-22.16,10.12-31,2.86a18.18,18.18,0,0,1-5.68-9.16,68.92,68.92,0,0,0-2.48-7.52c-1.1-2.5-2.78-4.62-6-4.46-3.4.17-5,2.58-5.75,5.38-2.06,8,.7,14.77,6.43,20.26,7.25,7,16.43,9.07,26.12,9.07a96,96,0,0,0,19.73-2.33c5.65-1.19,9.61-4.33,11.54-9.83,5.91-16.82,6-33.48-1.5-49.91-3.63-8-9.5-12.57-18.59-12.39-4.16.08-8.31,0-12.47,0Z"/><path class="cls-2" d="M427.59,156.89c8.31,10.66,21.66,15,33.16,5,6.89-6,15.11-8.76,24.08-9.63,2.23-.21,4.73-.47,5.22,2.34.56,3.21-2.12,3.12-4.3,3.27-10.57.74-18.77,6.72-28,12.53,6.06,1.82,11.49,1.08,16.82,1.33,1.66.08,3.33,0,5,.17a2.66,2.66,0,0,1,2.68,3,2.54,2.54,0,0,1-2.8,2.79c-21.54.37-43,.28-58-19.08a4.58,4.58,0,0,0-3.79-1.8c-9.62-.68-19.23-1.55-28.9-1-1.63.1-4,1.05-4.38-1.77s1.94-3.68,4.13-3.9a111.34,111.34,0,0,1,22.43.08c27.53,2.92,51.07-5.5,71.06-24.36,1.67-1.58,3.35-3.3,5.4-1.08,2.26,2.43-.3,3.9-1.74,5.29-14.77,14.3-32.23,23.13-52.7,25.81-.83.11-1.65.24-2.46.4S428.83,156.61,427.59,156.89Z"/><path class="cls-2" d="M429.52,84.64c12.17-.11,24,3.24,36.2,3.12,2.33,0,4.66,0,7-.24,1.78-.15,3.54-.31,3.8,2s-1.15,3.16-3.27,3.53c-7.68,1.31-15.25-.06-22.83-.8-8.92-.87-17.77-2.48-26.79-1.93-14.12.85-25.67,7.31-35.91,16.52-7.29,6.56-14.47,13.24-21.68,19.9-1.82,1.68-3.86,3.32-5.91.87-1.87-2.24.55-3.58,2-4.78,10.7-9,19.64-19.88,31.28-27.8C404.3,87.57,416.39,84.35,429.52,84.64Z"/><path class="cls-2" d="M471.89,194.71a175,175,0,0,1-53.68-13.38c-14.17-6.08-28.42-12-44.07-13.16-2.13-.15-4.13-.68-3.86-3.43s2.51-2.17,4.24-2.09c8.7.42,17,2.65,25.17,5.56,16.21,5.8,31.81,13.36,48.78,17a163.12,163.12,0,0,0,21.07,3.54c5.71.45,11.28.09,16.47-2.65,1.8-1,3.56-1.21,4.67.93,1.24,2.39-.69,3.31-2.27,4.14C483.45,193.78,478.09,194.69,471.89,194.71Z"/><path class="cls-2" d="M478.48,111.51c-5.75,5.28-10.67,12-17.89,15-12.21,4.91-23.43,12.3-36.69,14.66a33.72,33.72,0,0,1-16.24-.85c-10.05-3.15-20.38-4.56-30.82-5.36-2.27-.17-4.72-.2-4.46-3.27s2.92-2.78,5-2.24c4.6,1.2,7-.59,9.36-4.66,7-12.26,16.28-21.75,31.45-23.37,6.19-.66,11.87.76,17.48,2.9a76.1,76.1,0,0,0,11.27,3.78c6.76,1.46,12.1-.29,16.12-6,1.24-1.77,2.69-3.93,5.19-2,2.66,2,.43,3.74-.76,5.39C463.61,110.8,459,114.79,452,114c-6.38.16-12-1.91-17.53-4.13a37.68,37.68,0,0,0-16.54-2.91c-9.42.61-24.49,12.81-27.11,21.87-.24.82-.49,1.48.45,2.09,3.14,2,8.34,1,10-2.36,7.45-14.53,21.84-16.68,34-9.64,12.3,7.16,21.71,5.7,31-3.93,2.55-2.62,5.42-4.91,8.1-7.41,1.6-1.49,3.38-2.59,5.16-.68C481.17,108.62,480,110.17,478.48,111.51ZM439,127c-5.26-2.71-10.34-6-17-5.37-7.19-1-11.92,2.69-15.44,8.86-1.38,2.43-1.06,3.16,1.64,3.91,10.93,3.06,20.91.15,30.72-4.35C441.3,129,440.58,127.85,439,127Z"/><path class="cls-2" d="M309,113.84c-8.32-10.67-21.66-15-33.17-5-6.89,6-15.11,8.76-24.07,9.62-2.24.22-4.74.48-5.23-2.34-.55-3.21,2.12-3.11,4.3-3.27,10.58-.73,18.77-6.72,28-12.53-6.06-1.81-11.48-1.07-16.81-1.33-1.66-.08-3.34,0-5-.17a2.66,2.66,0,0,1-2.67-3,2.53,2.53,0,0,1,2.79-2.78c21.55-.38,43-.28,58,19.07A4.61,4.61,0,0,0,319,114c9.62.67,19.22,1.54,28.89,1,1.63-.09,4-1.05,4.38,1.77s-1.94,3.69-4.13,3.9a110.61,110.61,0,0,1-22.43-.08c-27.52-2.91-51.07,5.5-71.06,24.37-1.67,1.57-3.34,3.29-5.4,1.07-2.25-2.43.3-3.89,1.74-5.29,14.77-14.3,32.24-23.13,52.71-25.8.82-.11,1.64-.25,2.46-.4S307.78,114.11,309,113.84Z"/><path class="cls-2" d="M307.09,186.09c-12.16.1-24-3.25-36.2-3.12-2.32,0-4.66,0-7,.23-1.78.16-3.55.32-3.81-2s1.16-3.16,3.28-3.52c7.67-1.32,15.24.05,22.82.79,8.92.87,17.78,2.49,26.8,1.94,14.11-.86,25.66-7.32,35.91-16.53,7.29-6.56,14.47-13.24,21.67-19.89,1.82-1.68,3.86-3.33,5.91-.88,1.87,2.24-.55,3.58-2,4.78-10.69,9-19.64,19.89-31.28,27.81A60.24,60.24,0,0,1,307.09,186.09Z"/><path class="cls-2" d="M264.72,76A174.77,174.77,0,0,1,318.4,89.4c14.17,6.07,28.42,12,44.07,13.15,2.13.16,4.13.69,3.86,3.43s-2.51,2.17-4.23,2.09c-8.71-.41-17-2.65-25.18-5.56-16.21-5.8-31.81-13.35-48.77-17A159.9,159.9,0,0,0,267.07,82c-5.71-.46-11.27-.1-16.46,2.64-1.81,1-3.56,1.21-4.68-.93-1.24-2.38.7-3.31,2.27-4.14C253.16,77,258.52,76,264.72,76Z"/><path class="cls-2" d="M258.13,159.21c5.76-5.27,10.68-12.05,17.9-15,12.2-4.92,23.42-12.31,36.69-14.67a33.69,33.69,0,0,1,16.23.85c10.06,3.16,20.38,4.56,30.82,5.36,2.28.18,4.73.2,4.46,3.27s-2.92,2.79-5,2.25c-4.6-1.21-7,.58-9.36,4.65-7,12.26-16.28,21.76-31.44,23.37-6.2.66-11.88-.75-17.48-2.9a77.41,77.41,0,0,0-11.28-3.78c-6.75-1.46-12.1.29-16.12,6-1.23,1.76-2.68,3.92-5.19,2-2.66-2-.43-3.75.76-5.4,3.88-5.38,8.53-9.37,15.52-8.54,6.38-.17,12,1.9,17.54,4.13a37.65,37.65,0,0,0,16.53,2.9c9.43-.6,24.49-12.81,27.12-21.86.24-.82.49-1.49-.46-2.1-3.14-2-8.34-1-10,2.36-7.45,14.53-21.84,16.68-33.95,9.64-12.3-7.15-21.71-5.7-31.06,3.93-2.54,2.62-5.42,4.91-8.09,7.41-1.61,1.49-3.38,2.6-5.17.68C255.44,162.1,256.67,160.55,258.13,159.21Zm39.52-15.51c5.25,2.71,10.33,6.05,17,5.36,7.19,1,11.92-2.69,15.43-8.85,1.39-2.44,1.06-3.16-1.64-3.92-10.93-3-20.91-.14-30.72,4.35C295.31,141.73,296,142.87,297.65,143.7Z"/><path class="cls-2" d="M352.68,5.82c-5.15,0-10.31,0-15.46,0-2.22,0-4.27-.53-4.44-2.93C332.59.17,334.9,0,337,0c9.47,0,18.95.13,28.43.1,10.62,0,18.19,5.11,22.69,14.31,9.28,19,9.49,38.34,1.42,57.78-2.87,6.9-8.72,10.17-15.7,11.64-13.17,2.77-26.35,3.81-39.21-1.35C321.5,77.22,313.49,64,315.47,51.4a14.4,14.4,0,0,1,5.15-9.35c5.77-4.67,13.29-2.89,16.54,4a43.83,43.83,0,0,1,2.93,8.43c2.52,10.62,15.1,15.71,25.91,7.29,14.06-10.95,9.63-31.64.54-39.73-5.1-4.54-11.53-4.63-17.85-4.67-1.31,0-3.12.21-3.38,2.26-.22,1.73.79,2.84,2,3.79,2.31,1.84,5.19,2.09,7.92,2.69,9,2,15.73,11.84,14,20.92-.92,4.77-3.67,8.08-8.72,9-4.88.92-9.65.76-13.87-2.14a8.83,8.83,0,0,1-3-11.45c1.94-3.59,4.93-4.72,8.81-3.46,1.31.42,2.53,1,2.76,2.53s-.94,2.43-2.28,2.74c-1.94.46-2.84,1.41-2.46,3.48s1.79,2.68,3.51,3c7.5,1.36,11.18-2.71,9.09-10-1.51-5.22-4.53-8.67-10.19-9.52a18.21,18.21,0,0,1-10.26-4.62c-2.63-2.52-3.76-5.49-2.72-9,1-3.34,3.55-5,6.9-5.71,11.93-2.59,25.26,4,30.42,15.67C383,40.61,381.55,53,372.3,64c-7.54,9-22.15,10.12-31,2.86a18.12,18.12,0,0,1-5.67-9.16,69.69,69.69,0,0,0-2.49-7.52c-1.09-2.5-2.78-4.62-6-4.46-3.4.18-5,2.59-5.75,5.38-2.06,8,.71,14.77,6.43,20.27,7.25,7,16.43,9.07,26.12,9.06a96.15,96.15,0,0,0,19.74-2.33c5.64-1.19,9.6-4.32,11.53-9.83,5.91-16.82,6-33.48-1.49-49.91-3.64-8-9.51-12.56-18.6-12.38-4.15.08-8.31,0-12.47,0Z"/><path class="cls-2" d="M182.05,221.79c8.31,10.67,21.66,15,33.16,5,6.89-6,15.11-8.76,24.08-9.62,2.23-.22,4.74-.48,5.22,2.33.56,3.22-2.11,3.12-4.3,3.27-10.57.74-18.77,6.72-28,12.54,6.05,1.81,11.48,1.07,16.81,1.33,1.66.08,3.33,0,5,.16a2.68,2.68,0,0,1,2.68,3,2.53,2.53,0,0,1-2.8,2.78c-21.54.37-43,.28-58-19.07a4.61,4.61,0,0,0-3.8-1.81c-9.62-.68-19.23-1.54-28.89-1-1.64.1-4,1.06-4.38-1.76s1.93-3.69,4.13-3.9a110.61,110.61,0,0,1,22.43.08c27.52,2.91,51.06-5.5,71-24.37,1.67-1.58,3.35-3.29,5.4-1.07,2.26,2.43-.3,3.89-1.74,5.29-14.76,14.29-32.23,23.12-52.7,25.8-.82.11-1.65.25-2.46.4S183.29,221.51,182.05,221.79Z"/><path class="cls-2" d="M184,149.54c12.17-.1,24,3.24,36.2,3.12,2.33,0,4.66,0,7-.23,1.78-.16,3.54-.32,3.8,2s-1.15,3.17-3.27,3.53c-7.67,1.32-15.24-.05-22.83-.79-8.91-.87-17.77-2.49-26.79-1.94-14.11.86-25.67,7.31-35.91,16.53-7.29,6.56-14.47,13.24-21.67,19.89-1.83,1.68-3.86,3.32-5.91.87-1.88-2.23.54-3.57,2-4.77,10.69-9,19.63-19.89,31.27-27.81A60.26,60.26,0,0,1,184,149.54Z"/><path class="cls-2" d="M226.35,259.62a175.05,175.05,0,0,1-53.68-13.39c-14.16-6.07-28.42-12-44.07-13.15-2.13-.16-4.12-.69-3.86-3.43s2.51-2.18,4.24-2.09c8.7.41,17,2.64,25.17,5.56,16.22,5.79,31.81,13.35,48.78,17A163.12,163.12,0,0,0,224,253.64c5.71.46,11.28.1,16.47-2.65,1.81-1,3.56-1.2,4.67.94,1.24,2.38-.69,3.31-2.27,4.14C237.92,258.68,232.55,259.6,226.35,259.62Z"/><path class="cls-2" d="M232.94,176.42c-5.75,5.27-10.67,12.05-17.89,15-12.2,4.92-23.43,12.31-36.69,14.66a33.56,33.56,0,0,1-16.23-.84c-10.06-3.16-20.39-4.56-30.83-5.36-2.27-.18-4.72-.2-4.45-3.27s2.92-2.79,5-2.25c4.6,1.2,7-.58,9.36-4.66,7-12.25,16.28-21.75,31.45-23.36,6.19-.66,11.87.75,17.48,2.9A77.28,77.28,0,0,0,201.39,173c6.76,1.46,12.1-.29,16.12-6,1.24-1.76,2.69-3.93,5.2-2s.42,3.74-.77,5.4c-3.87,5.38-8.52,9.37-15.51,8.54-6.38.17-12-1.91-17.54-4.13a37.51,37.51,0,0,0-16.53-2.9c-9.43.6-24.5,12.81-27.12,21.86-.24.82-.49,1.48.46,2.09,3.13,2,8.33,1,10-2.36,7.45-14.52,21.84-16.67,33.95-9.63,12.3,7.15,21.71,5.69,31.06-3.93,2.54-2.62,5.41-4.92,8.09-7.41,1.6-1.49,3.38-2.6,5.16-.68C235.64,173.52,234.41,175.07,232.94,176.42Zm-39.51,15.51c-5.26-2.71-10.34-6.05-17-5.36-7.19-1-11.92,2.69-15.43,8.85-1.39,2.44-1.06,3.16,1.64,3.92,10.92,3,20.9.14,30.71-4.36C195.76,193.9,195,192.76,193.43,191.93Z"/><path class="cls-2" d="M63.49,178.74c-8.31-10.67-21.66-15-33.17-5-6.88,6-15.1,8.76-24.07,9.63C4,183.59,1.51,183.85,1,181c-.55-3.21,2.12-3.12,4.3-3.27,10.58-.74,18.77-6.72,28-12.53-6.05-1.82-11.48-1.08-16.81-1.34-1.66-.08-3.33,0-5-.16a2.67,2.67,0,0,1-2.68-3,2.54,2.54,0,0,1,2.8-2.78c21.54-.37,43-.28,58,19.08a4.6,4.6,0,0,0,3.8,1.8c9.62.68,19.23,1.55,28.89,1,1.64-.1,4-1.05,4.38,1.77s-1.93,3.68-4.13,3.89a111.34,111.34,0,0,1-22.43-.07c-27.52-2.92-51.06,5.5-71.05,24.36-1.67,1.58-3.35,3.29-5.41,1.08-2.25-2.44.31-3.9,1.74-5.29,14.77-14.3,32.24-23.13,52.71-25.81.82-.11,1.64-.24,2.46-.4S62.25,179,63.49,178.74Z"/><path class="cls-2" d="M61.56,251c-12.17.1-24-3.24-36.21-3.12-2.32,0-4.66,0-7,.24-1.78.15-3.55.31-3.81-2s1.16-3.17,3.28-3.53c7.67-1.31,15.24.05,22.83.79,8.91.88,17.77,2.49,26.79,1.94,14.11-.86,25.67-7.31,35.91-16.53,7.29-6.55,14.47-13.23,21.67-19.89,1.82-1.68,3.86-3.32,5.91-.87,1.87,2.24-.54,3.57-2,4.78-10.69,9-19.64,19.88-31.27,27.8C86.77,248.06,74.68,251.28,61.56,251Z"/><path class="cls-2" d="M19.18,140.91A175.27,175.27,0,0,1,72.86,154.3c14.17,6.08,28.42,12,44.08,13.15,2.12.16,4.12.69,3.86,3.44s-2.51,2.17-4.24,2.09c-8.7-.42-17-2.65-25.18-5.57-16.21-5.79-31.81-13.35-48.77-17a163.41,163.41,0,0,0-21.07-3.54c-5.72-.45-11.28-.09-16.47,2.65-1.81,1-3.56,1.2-4.67-.93-1.24-2.39.69-3.32,2.27-4.15C7.62,141.85,13,140.94,19.18,140.91Z"/><path class="cls-2" d="M12.59,224.11c5.76-5.27,10.68-12,17.9-15,12.2-4.92,23.42-12.3,36.69-14.66a33.8,33.8,0,0,1,16.23.84c10.06,3.16,20.38,4.56,30.82,5.37,2.28.17,4.73.2,4.46,3.26-.28,3.21-2.92,2.79-5,2.25-4.6-1.2-7,.58-9.36,4.66-7,12.26-16.29,21.75-31.45,23.37-6.2.66-11.87-.76-17.48-2.91a77.68,77.68,0,0,0-11.27-3.78c-6.76-1.45-12.11.29-16.12,6-1.24,1.76-2.69,3.93-5.2,2s-.42-3.74.77-5.4c3.87-5.38,8.52-9.37,15.51-8.54,6.38-.17,12,1.91,17.54,4.13a37.51,37.51,0,0,0,16.53,2.9c9.43-.6,24.5-12.8,27.12-21.86.24-.82.49-1.48-.46-2.09-3.13-2-8.34-1-10,2.36-7.45,14.53-21.84,16.67-33.95,9.63-12.3-7.15-21.71-5.69-31.06,3.93-2.54,2.62-5.42,4.92-8.09,7.41-1.6,1.5-3.38,2.6-5.17.68C9.9,227,11.13,225.46,12.59,224.11ZM52.11,208.6c5.26,2.71,10.33,6.05,17,5.37,7.19,1,11.92-2.7,15.43-8.86,1.39-2.43,1.06-3.16-1.64-3.91-10.92-3.06-20.9-.15-30.71,4.35C49.77,206.63,50.5,207.77,52.11,208.6Z"/><path class="cls-2" d="M107.15,70.72c-5.16,0-10.32,0-15.47,0-2.22,0-4.27-.53-4.44-2.92-.19-2.74,2.12-2.92,4.21-2.92,9.48,0,19,.13,28.43.11,10.62,0,18.2,5.1,22.7,14.3,9.27,19,9.48,38.34,1.41,57.78-2.86,6.9-8.72,10.17-15.7,11.64-13.17,2.78-26.35,3.81-39.21-1.34C76,142.13,68,128.9,69.93,116.3A14.4,14.4,0,0,1,75.08,107c5.77-4.67,13.29-2.89,16.54,4a44.7,44.7,0,0,1,2.94,8.42c2.51,10.62,15.09,15.72,25.9,7.29,14.06-11,9.63-31.64.54-39.73-5.09-4.54-11.53-4.63-17.85-4.66-1.31,0-3.12.21-3.38,2.26-.21,1.72.8,2.83,2,3.78,2.31,1.84,5.19,2.09,7.92,2.69,9,2,15.74,11.84,14,20.92-.92,4.77-3.67,8.08-8.72,9-4.88.91-9.65.75-13.87-2.15a8.85,8.85,0,0,1-3-11.45c1.94-3.59,4.93-4.71,8.82-3.46,1.3.42,2.53,1,2.75,2.53.26,1.72-.94,2.43-2.28,2.75-1.93.45-2.84,1.4-2.46,3.47s1.79,2.69,3.51,3c7.51,1.36,11.18-2.71,9.09-10C116,100.49,113,97,107.36,96.19A18.07,18.07,0,0,1,97.1,91.58c-2.64-2.53-3.77-5.5-2.72-9,1-3.33,3.55-5,6.89-5.71,11.93-2.59,25.27,4,30.42,15.67,5.72,13,4.33,25.33-4.93,36.32-7.54,8.95-22.15,10.12-31,2.86a18.11,18.11,0,0,1-5.68-9.16A66.22,66.22,0,0,0,87.6,115c-1.09-2.51-2.78-4.62-6-4.46-3.39.17-5,2.58-5.75,5.38-2.06,8,.71,14.77,6.44,20.26,7.25,6.95,16.42,9.07,26.11,9.07A96.68,96.68,0,0,0,128.17,143c5.64-1.19,9.6-4.33,11.54-9.83,5.9-16.83,6-33.48-1.5-49.91-3.63-8-9.51-12.57-18.6-12.39-4.15.08-8.31,0-12.46,0Z"/><path class="cls-2" d="M182.05,27.08c8.31,10.66,21.66,15,33.16,5,6.89-6,15.11-8.76,24.08-9.63,2.23-.21,4.74-.47,5.22,2.34.56,3.21-2.11,3.12-4.3,3.27-10.57.74-18.77,6.72-28,12.53,6.05,1.82,11.48,1.08,16.81,1.33,1.66.08,3.33,0,5,.17a2.67,2.67,0,0,1,2.68,3,2.54,2.54,0,0,1-2.8,2.78c-21.54.37-43,.28-58-19.08a4.6,4.6,0,0,0-3.8-1.8c-9.62-.68-19.23-1.55-28.89-1-1.64.1-4,1.05-4.38-1.77s1.93-3.68,4.13-3.89a111.34,111.34,0,0,1,22.43.07c27.52,2.92,51.06-5.5,71-24.36,1.67-1.58,3.35-3.29,5.4-1.08,2.26,2.44-.3,3.9-1.74,5.29-14.76,14.3-32.23,23.13-52.7,25.81-.82.11-1.65.24-2.46.4S183.29,26.8,182.05,27.08Z"/><path class="cls-2" d="M226.35,64.9a175,175,0,0,1-53.68-13.38c-14.16-6.08-28.42-12-44.07-13.15-2.13-.16-4.12-.69-3.86-3.44s2.51-2.17,4.24-2.09c8.7.42,17,2.65,25.17,5.57,16.22,5.79,31.81,13.35,48.78,17A163.12,163.12,0,0,0,224,58.93c5.71.45,11.28.09,16.47-2.65,1.81-1,3.56-1.2,4.67.93,1.24,2.39-.69,3.31-2.27,4.15C237.92,64,232.55,64.88,226.35,64.9Z"/><path class="cls-2" d="M232.94-18.29c-5.75,5.27-10.67,12-17.89,15C202.85,1.57,191.62,9,178.36,11.32a33.68,33.68,0,0,1-16.23-.85c-10.06-3.15-20.39-4.55-30.83-5.36-2.27-.17-4.72-.2-4.45-3.27s2.92-2.78,5-2.24c4.6,1.2,7-.58,9.36-4.66,7-12.26,16.28-21.75,31.45-23.37,6.19-.66,11.87.76,17.48,2.91a76.06,76.06,0,0,0,11.27,3.77c6.76,1.46,12.1-.29,16.12-6,1.24-1.76,2.69-3.93,5.2-2s.42,3.74-.77,5.39c-3.87,5.39-8.52,9.38-15.51,8.55-6.38.16-12-1.91-17.54-4.13a37.51,37.51,0,0,0-16.53-2.9c-9.43.6-24.5,12.8-27.12,21.86-.24.82-.49,1.48.46,2.09,3.13,2,8.33,1,10-2.36,7.45-14.53,21.84-16.67,33.95-9.63,12.3,7.15,21.71,5.69,31.06-3.94,2.54-2.61,5.41-4.91,8.09-7.4,1.6-1.5,3.38-2.6,5.16-.69C235.64-21.19,234.41-19.64,232.94-18.29ZM193.43-2.78c-5.26-2.71-10.34-6.05-17-5.37-7.19-1-11.92,2.69-15.43,8.86-1.39,2.43-1.06,3.16,1.64,3.91,10.92,3.06,20.9.15,30.71-4.35C195.76-.81,195-1.95,193.43-2.78Z"/><path class="cls-2" d="M63.49-16c-8.31-10.67-21.66-15-33.17-5-6.88,6-15.1,8.76-24.07,9.62C4-11.12,1.51-10.86,1-13.67c-.55-3.22,2.12-3.12,4.3-3.27,10.58-.74,18.77-6.72,28-12.54-6.05-1.81-11.48-1.07-16.81-1.33-1.66-.08-3.33,0-5-.16a2.68,2.68,0,0,1-2.68-3,2.53,2.53,0,0,1,2.8-2.78c21.54-.38,43-.28,58,19.07a4.61,4.61,0,0,0,3.8,1.81c9.62.68,19.23,1.54,28.89,1,1.64-.09,4-1,4.38,1.77s-1.93,3.69-4.13,3.9a110.61,110.61,0,0,1-22.43-.08C52.66-12.2,29.12-3.79,9.13,15.08c-1.67,1.57-3.35,3.29-5.41,1.07-2.25-2.43.31-3.89,1.74-5.29C20.23-3.43,37.7-12.26,58.17-14.94c.82-.11,1.64-.25,2.46-.4S62.25-15.7,63.49-16Z"/><path class="cls-2" d="M61.56,56.28c-12.17.1-24-3.24-36.21-3.12-2.32,0-4.66,0-7,.23-1.78.16-3.55.32-3.81-2s1.16-3.17,3.28-3.53c7.67-1.32,15.24,0,22.83.79,8.91.87,17.77,2.49,26.79,1.94,14.11-.86,25.67-7.31,35.91-16.53,7.29-6.56,14.47-13.24,21.67-19.89,1.82-1.68,3.86-3.32,5.91-.87,1.87,2.23-.54,3.57-2,4.77-10.69,9-19.64,19.89-31.27,27.81A60.28,60.28,0,0,1,61.56,56.28Z"/><path class="cls-2" d="M12.59,29.4c5.76-5.27,10.68-12,17.9-14.95C42.69,9.53,53.91,2.14,67.18-.22A33.68,33.68,0,0,1,83.41.63C93.47,3.79,103.79,5.19,114.23,6c2.28.18,4.73.2,4.46,3.27s-2.92,2.79-5,2.25c-4.6-1.21-7,.58-9.36,4.66-7,12.25-16.29,21.75-31.45,23.36-6.2.66-11.87-.75-17.48-2.9a77.68,77.68,0,0,0-11.27-3.78c-6.76-1.46-12.11.29-16.12,6-1.24,1.76-2.69,3.93-5.2,2s-.42-3.75.77-5.4c3.87-5.38,8.52-9.37,15.51-8.54,6.38-.17,12,1.9,17.54,4.13A37.51,37.51,0,0,0,73.18,34c9.43-.6,24.5-12.81,27.12-21.86.24-.82.49-1.48-.46-2.1-3.13-2-8.34-1-10,2.37C82.35,26.92,68,29.07,55.85,22,43.55,14.88,34.14,16.34,24.79,26c-2.54,2.62-5.42,4.92-8.09,7.41-1.6,1.49-3.38,2.6-5.17.68C9.9,32.3,11.13,30.74,12.59,29.4ZM52.11,13.89c5.26,2.71,10.33,6.05,17,5.36,7.19,1,11.92-2.69,15.43-8.85C85.88,8,85.55,7.24,82.85,6.48,71.93,3.43,62,6.34,52.14,10.84,49.77,11.92,50.5,13.06,52.11,13.89Z"/></pattern></defs><rect class="cls-3" x="62.86" y="24.43" width="1230.43" height="412.71" rx="206.36"/></svg>