<svg id="Capa_1" data-name="Capa 1" xmlns="http://www.w3.org/2000/svg" xmlns:xlink="http://www.w3.org/1999/xlink" viewBox="0 0 1321.71 473.14"><defs><style>.cls-1{fill:none;}.cls-2{fill:#b8ff80;}.cls-3{fill:url(#lagartijas);}</style><pattern id="lagartijas" data-name="lagartijas" width="317.23" height="382.98" patternTransform="translate(1996.04 566.38)" patternUnits="userSpaceOnUse" viewBox="0 0 317.23 382.98"><rect class="cls-1" width="317.23" height="382.98"/><path class="cls-2" d="M179.44,326.9a26.89,26.89,0,0,1-12-3.16c-2.9-1.41-3.55-3.73-2.16-6.66a10.89,10.89,0,0,1,4.57-4.64,30,30,0,0,0,11.66-12.88c4.63-9.07,15.28-13.74,25.27-11.94,6.65,1.2,10.1,5.63,12.25,11.48,2.06,5.61,2.39,11.54,2.89,17.42.1,1.09.34,2.53-1.41,2.64s-2-1.09-2.13-2.51a77.25,77.25,0,0,0-1.94-14.46c-2.18-8.56-7.76-12.23-16.49-11.1-7.32,1-12.88,4.44-15.93,11.28a26.69,26.69,0,0,1-10.46,11.76c-1.07.69-2.15,1.38-3.15,2.17-3,2.33-2.78,3.5.67,5a23.66,23.66,0,0,0,16,1.05,48.56,48.56,0,0,1,8.11-1.82c4.36-.37,7.35,1.61,9.39,5.26a9.26,9.26,0,0,1-.49,10.46c-1.32,1.9-2.87,3.64-4.22,5.53-1.71,2.39-2.59,5-.85,7.74.59,1,.7,1.72-.37,2.31a1.92,1.92,0,0,1-2.75-.64,8.68,8.68,0,0,1-.74-8c.95-2.85,3.17-4.81,4.89-7.12,2.54-3.44,3-6.44,1.09-9.3-2.09-3.21-5.14-2.9-8.38-2.3C188.32,325.33,184.05,327.05,179.44,326.9Z"/><path class="cls-2" d="M228.23,301.17c-.25-3.94-.42-6.72-.6-9.5-.07-1.24,0-2.44,1.57-2.63s1.91.9,2,2.19a102.7,102.7,0,0,1-1.76,30.1c-1,4.36-5.79,7.65-10.18,7.47a6.27,6.27,0,0,1-6.38-5.74c-.44-3.56-.44-7.17-.74-10.75-.5-5.94-4.32-10.56-9.43-11.44a9.15,9.15,0,0,0-9.69,3.92c-1.82,2.57-2.79,5.56-4.13,8.37-1.85,3.88-4.66,6.62-9.22,6.93-1.05.07-2.24.08-2.43-1.33a1.78,1.78,0,0,1,2-2.23c3.35,0,5.24-2.15,6.66-4.81,1.63-3.06,3.26-6.13,4.71-9.27,3-6.45,16.64-7.21,20.52-1.24,2.61,4,4.57,8,4.59,12.85a51.5,51.5,0,0,0,.08,5.56c.26,2.26.34,4.8,3.41,5.31A6,6,0,0,0,226,320.7a56.94,56.94,0,0,0,1.62-8.87C228,307.91,228.07,304,228.23,301.17Z"/><path class="cls-2" d="M241,302.09c-.11,11,0,22.42-5.69,32.15-5,8.46-8.06,16.87-7.67,26.74.23,5.9-3.45,11.29-3.16,17.35a1.49,1.49,0,0,1-1.87,1.54,1.94,1.94,0,0,1-1.78-2.2,27.16,27.16,0,0,1,1.06-7.21c1.68-5.7,2.76-11.45,2.22-17.47-.57-6.51-2.22-8.8-8.39-10.56-1.23-.35-2.34-.75-2-2.25s1.68-1.51,2.81-1.28c2.51.5,5.08,1.19,6.8,3.17,2.06,2.38,2.76,1.17,4.15-.75,8.33-11.51,9.78-24.75,10-38.33.05-3.72,0-7.44,0-11.15,0-1.43-.49-3.37,1.85-3.35,2.14,0,1.67,1.86,1.69,3.15C241,295.12,241,298.61,241,302.09Z"/><path class="cls-2" d="M203.46,308.27c-.21,1.82-1,3.12-3,3.15a2.67,2.67,0,0,1-3-2.59c-.15-2.15,1.4-3.17,3.16-3.36S203.18,306.69,203.46,308.27Z"/><path class="cls-2" d="M302.38,385a27,27,0,0,0,12-3.16c2.9-1.41,3.54-3.73,2.16-6.66a11,11,0,0,0-4.58-4.64,30,30,0,0,1-11.66-12.88c-4.63-9.07-15.28-13.74-25.26-11.94-6.66,1.2-10.1,5.63-12.25,11.48-2.07,5.61-2.39,11.54-2.9,17.42-.1,1.09-.34,2.53,1.41,2.64s2-1.09,2.13-2.51a78.09,78.09,0,0,1,1.94-14.46c2.18-8.56,7.76-12.23,16.49-11.1,7.32,1,12.88,4.44,15.93,11.28a26.81,26.81,0,0,0,10.46,11.76c1.07.69,2.15,1.38,3.15,2.17,3,2.33,2.78,3.5-.67,5a23.63,23.63,0,0,1-16,1.05,48.67,48.67,0,0,0-8.12-1.82c-4.36-.37-7.35,1.61-9.39,5.26a9.26,9.26,0,0,0,.49,10.46c1.32,1.9,2.88,3.64,4.22,5.53,1.71,2.39,2.59,5,.86,7.74-.6,1-.7,1.72.37,2.31a1.91,1.91,0,0,0,2.74-.64,8.71,8.71,0,0,0,.75-8c-.95-2.85-3.18-4.81-4.89-7.12-2.55-3.44-3-6.44-1.1-9.3,2.1-3.21,5.14-2.9,8.38-2.3C293.5,383.45,297.78,385.17,302.38,385Z"/><path class="cls-2" d="M253.6,359.29c.24-3.94.41-6.72.59-9.5.08-1.24,0-2.44-1.57-2.63s-1.9.9-2,2.19a102.37,102.37,0,0,0,1.77,30.1c1,4.36,5.79,7.65,10.17,7.47a6.26,6.26,0,0,0,6.38-5.74c.44-3.56.44-7.17.74-10.75.5-5.94,4.32-10.56,9.43-11.44a9.15,9.15,0,0,1,9.69,3.92c1.83,2.57,2.8,5.56,4.13,8.37,1.86,3.88,4.66,6.62,9.22,6.93,1.05.07,2.24.08,2.44-1.33a1.79,1.79,0,0,0-2-2.23c-3.36,0-5.24-2.15-6.66-4.81-1.63-3.06-3.27-6.13-4.71-9.27-3-6.45-16.64-7.21-20.53-1.24-2.61,4-4.57,8-4.59,12.85a51.51,51.51,0,0,1-.07,5.56c-.26,2.26-.34,4.8-3.42,5.31a6,6,0,0,1-6.75-4.23,56.94,56.94,0,0,1-1.62-8.87C253.84,366,253.76,362.08,253.6,359.29Z"/><path class="cls-2" d="M240.85,360.21c.11,11,0,22.42,5.69,32.15,5,8.46,8.06,16.87,7.67,26.74-.23,5.9,3.45,11.29,3.16,17.35a1.49,1.49,0,0,0,1.88,1.54,1.94,1.94,0,0,0,1.77-2.2,27.16,27.16,0,0,0-1.06-7.21c-1.68-5.7-2.76-11.45-2.22-17.47.58-6.51,2.22-8.8,8.39-10.56,1.24-.35,2.34-.75,2-2.25s-1.68-1.51-2.81-1.28c-2.5.5-5.08,1.19-6.79,3.17-2.07,2.38-2.77,1.17-4.16-.75-8.33-11.51-9.78-24.75-10-38.33-.05-3.72,0-7.44,0-11.15,0-1.43.49-3.37-1.85-3.35-2.14,0-1.66,1.86-1.69,3.15C240.82,353.24,240.85,356.73,240.85,360.21Z"/><path class="cls-2" d="M278.36,366.39c.21,1.82,1,3.12,3,3.15a2.68,2.68,0,0,0,3-2.59c.15-2.15-1.41-3.17-3.17-3.36S278.64,364.81,278.36,366.39Z"/><path class="cls-2" d="M20.83,326.9a27,27,0,0,1-12-3.16c-2.9-1.41-3.54-3.73-2.16-6.66a10.91,10.91,0,0,1,4.58-4.64,30.11,30.11,0,0,0,11.66-12.88c4.63-9.07,15.28-13.74,25.26-11.94,6.66,1.2,10.1,5.63,12.25,11.48,2.07,5.61,2.39,11.54,2.9,17.42.09,1.09.34,2.53-1.41,2.64s-2-1.09-2.13-2.51a78.09,78.09,0,0,0-1.94-14.46c-2.18-8.56-7.77-12.23-16.49-11.1-7.32,1-12.88,4.44-15.93,11.28A26.81,26.81,0,0,1,15,314.13c-1.07.69-2.15,1.38-3.15,2.17-3,2.33-2.78,3.5.67,5a23.63,23.63,0,0,0,16,1.05,48.67,48.67,0,0,1,8.12-1.82c4.36-.37,7.35,1.61,9.39,5.26a9.26,9.26,0,0,1-.49,10.46c-1.32,1.9-2.88,3.64-4.22,5.53-1.71,2.39-2.59,5-.86,7.74.6,1,.7,1.72-.37,2.31a1.91,1.91,0,0,1-2.74-.64,8.71,8.71,0,0,1-.75-8c.95-2.85,3.18-4.81,4.89-7.12,2.55-3.44,3-6.44,1.1-9.3-2.1-3.21-5.15-2.9-8.38-2.3C29.71,325.33,25.43,327.05,20.83,326.9Z"/><path class="cls-2" d="M69.61,301.17c-.24-3.94-.42-6.72-.59-9.5-.08-1.24,0-2.44,1.57-2.63s1.9.9,2,2.19a102.37,102.37,0,0,1-1.77,30.1c-1,4.36-5.79,7.65-10.17,7.47a6.27,6.27,0,0,1-6.38-5.74c-.44-3.56-.45-7.17-.75-10.75-.49-5.94-4.31-10.56-9.42-11.44a9.15,9.15,0,0,0-9.69,3.92c-1.83,2.57-2.8,5.56-4.14,8.37-1.85,3.88-4.65,6.62-9.21,6.93-1.05.07-2.25.08-2.44-1.33a1.78,1.78,0,0,1,2-2.23c3.36,0,5.24-2.15,6.66-4.81,1.63-3.06,3.27-6.13,4.71-9.27,2.95-6.45,16.64-7.21,20.53-1.24,2.61,4,4.57,8,4.59,12.85a51.51,51.51,0,0,0,.07,5.56c.26,2.26.34,4.8,3.41,5.31a6,6,0,0,0,6.76-4.23A56.94,56.94,0,0,0,69,311.83C69.37,307.91,69.45,304,69.61,301.17Z"/><path class="cls-2" d="M82.35,302.09c-.1,11,0,22.42-5.68,32.15-5,8.46-8.06,16.87-7.68,26.74.24,5.9-3.45,11.29-3.15,17.35A1.49,1.49,0,0,1,64,379.87a1.94,1.94,0,0,1-1.77-2.2,27.16,27.16,0,0,1,1.06-7.21C64.93,364.76,66,359,65.47,353c-.58-6.51-2.22-8.8-8.39-10.56-1.24-.35-2.34-.75-2-2.25s1.68-1.51,2.81-1.28c2.5.5,5.08,1.19,6.79,3.17,2.06,2.38,2.77,1.17,4.16-.75,8.33-11.51,9.78-24.75,10-38.33,0-3.72,0-7.44,0-11.15,0-1.43-.49-3.37,1.85-3.35,2.14,0,1.66,1.86,1.68,3.15C82.39,295.12,82.35,298.61,82.35,302.09Z"/><path class="cls-2" d="M44.85,308.27c-.21,1.82-1,3.12-3,3.15a2.68,2.68,0,0,1-3-2.59c-.15-2.15,1.41-3.17,3.16-3.36S44.57,306.69,44.85,308.27Z"/><path class="cls-2" d="M143.77,385a26.89,26.89,0,0,0,12-3.16c2.9-1.41,3.55-3.73,2.16-6.66a10.94,10.94,0,0,0-4.57-4.64,30,30,0,0,1-11.66-12.88c-4.64-9.07-15.28-13.74-25.27-11.94-6.65,1.2-10.1,5.63-12.25,11.48-2.06,5.61-2.39,11.54-2.89,17.42-.1,1.09-.34,2.53,1.41,2.64s2-1.09,2.13-2.51a78.07,78.07,0,0,1,1.93-14.46c2.19-8.56,7.77-12.23,16.5-11.1,7.32,1,12.88,4.44,15.93,11.28a26.69,26.69,0,0,0,10.46,11.76c1.07.69,2.14,1.38,3.14,2.17,3,2.33,2.79,3.5-.66,5a23.66,23.66,0,0,1-16,1.05,48.67,48.67,0,0,0-8.12-1.82c-4.36-.37-7.34,1.61-9.38,5.26a9.26,9.26,0,0,0,.49,10.46c1.32,1.9,2.87,3.64,4.22,5.53,1.71,2.39,2.59,5,.85,7.74-.6,1-.7,1.72.37,2.31a1.92,1.92,0,0,0,2.75-.64,8.68,8.68,0,0,0,.74-8c-1-2.85-3.17-4.81-4.89-7.12-2.54-3.44-3-6.44-1.09-9.3,2.09-3.21,5.14-2.9,8.38-2.3C134.89,383.45,139.16,385.17,143.77,385Z"/><path class="cls-2" d="M95,359.29c.25-3.94.42-6.72.59-9.5.08-1.24,0-2.44-1.56-2.63s-1.91.9-2,2.19a102.7,102.7,0,0,0,1.76,30.1c1,4.36,5.79,7.65,10.18,7.47a6.26,6.26,0,0,0,6.38-5.74c.44-3.56.44-7.17.74-10.75.5-5.94,4.32-10.56,9.43-11.44a9.15,9.15,0,0,1,9.69,3.92c1.82,2.57,2.79,5.56,4.13,8.37,1.85,3.88,4.66,6.62,9.22,6.93,1,.07,2.24.08,2.43-1.33a1.78,1.78,0,0,0-2-2.23c-3.35,0-5.24-2.15-6.66-4.81-1.63-3.06-3.27-6.13-4.71-9.27-3-6.45-16.64-7.21-20.52-1.24-2.62,4-4.57,8-4.59,12.85a51.5,51.5,0,0,1-.08,5.56c-.26,2.26-.34,4.8-3.41,5.31a6,6,0,0,1-6.75-4.23A56.94,56.94,0,0,1,95.64,370C95.23,366,95.14,362.08,95,359.29Z"/><path class="cls-2" d="M82.24,360.21c.11,11,0,22.42,5.69,32.15,5,8.46,8.06,16.87,7.67,26.74-.23,5.9,3.45,11.29,3.16,17.35a1.49,1.49,0,0,0,1.87,1.54,2,2,0,0,0,1.78-2.2,27.16,27.16,0,0,0-1.06-7.21c-1.68-5.7-2.76-11.45-2.23-17.47.58-6.51,2.23-8.8,8.4-10.56,1.23-.35,2.34-.75,2-2.25s-1.69-1.51-2.81-1.28c-2.51.5-5.08,1.19-6.8,3.17-2.06,2.38-2.76,1.17-4.15-.75-8.33-11.51-9.78-24.75-10-38.33-.06-3.72,0-7.44,0-11.15,0-1.43.49-3.37-1.85-3.35-2.14,0-1.67,1.86-1.69,3.15C82.2,353.24,82.24,356.73,82.24,360.21Z"/><path class="cls-2" d="M119.74,366.39c.22,1.82,1,3.12,3,3.15a2.67,2.67,0,0,0,3-2.59c.15-2.15-1.41-3.17-3.16-3.36S120,364.81,119.74,366.39Z"/><path class="cls-2" d="M258.75,135.41a27,27,0,0,1-12-3.16c-2.9-1.41-3.54-3.73-2.16-6.66a10.85,10.85,0,0,1,4.58-4.64,30.11,30.11,0,0,0,11.66-12.88c4.63-9.07,15.28-13.74,25.26-11.94,6.66,1.2,10.1,5.63,12.25,11.48,2.07,5.61,2.39,11.54,2.9,17.42.09,1.09.34,2.53-1.41,2.64s-2-1.1-2.13-2.51a78.09,78.09,0,0,0-1.94-14.46c-2.18-8.56-7.76-12.24-16.49-11.1-7.32,1-12.88,4.44-15.93,11.28a26.81,26.81,0,0,1-10.46,11.76,37.46,37.46,0,0,0-3.15,2.17c-3,2.33-2.78,3.5.67,5a23.63,23.63,0,0,0,16,1.05,48.67,48.67,0,0,1,8.12-1.82c4.36-.37,7.35,1.61,9.39,5.25a9.28,9.28,0,0,1-.49,10.47c-1.32,1.9-2.88,3.64-4.22,5.53-1.71,2.39-2.59,5-.86,7.74.6,1,.7,1.72-.37,2.31a1.91,1.91,0,0,1-2.74-.64,8.71,8.71,0,0,1-.75-8c.95-2.85,3.18-4.81,4.89-7.12,2.55-3.44,3-6.44,1.1-9.3-2.1-3.21-5.15-2.9-8.38-2.3C267.63,133.84,263.35,135.56,258.75,135.41Z"/><path class="cls-2" d="M307.53,109.67c-.24-3.94-.42-6.72-.59-9.5-.08-1.23,0-2.43,1.57-2.62s1.9.9,2,2.19a102.37,102.37,0,0,1-1.77,30.1c-.95,4.36-5.79,7.64-10.17,7.46a6.26,6.26,0,0,1-6.38-5.73c-.44-3.56-.44-7.17-.75-10.75-.49-5.94-4.31-10.56-9.42-11.44a9.15,9.15,0,0,0-9.69,3.92c-1.83,2.57-2.8,5.56-4.13,8.37-1.86,3.88-4.66,6.62-9.22,6.93-1.05.07-2.25.08-2.44-1.33a1.79,1.79,0,0,1,2-2.23c3.36,0,5.24-2.15,6.66-4.81,1.63-3.06,3.27-6.13,4.71-9.28,3-6.44,16.64-7.2,20.53-1.23,2.61,4,4.57,8,4.59,12.84a51.66,51.66,0,0,0,.07,5.57c.26,2.26.34,4.8,3.41,5.31a6,6,0,0,0,6.76-4.23,56.94,56.94,0,0,0,1.62-8.87C307.29,116.42,307.37,112.47,307.53,109.67Z"/><path class="cls-2" d="M320.28,110.6c-.11,11,0,22.42-5.69,32.15-5,8.46-8.06,16.87-7.68,26.73.24,5.91-3.44,11.3-3.15,17.36a1.49,1.49,0,0,1-1.88,1.54,1.94,1.94,0,0,1-1.77-2.2,27.16,27.16,0,0,1,1.06-7.21c1.68-5.7,2.76-11.45,2.22-17.47-.58-6.51-2.22-8.8-8.39-10.56-1.24-.36-2.34-.75-2-2.25s1.68-1.51,2.81-1.28c2.5.5,5.08,1.19,6.79,3.17,2.06,2.38,2.77,1.17,4.16-.75,8.33-11.51,9.78-24.75,10-38.34.05-3.71,0-7.43,0-11.14,0-1.43-.49-3.37,1.85-3.35,2.14,0,1.66,1.85,1.69,3.15C320.31,103.63,320.28,107.11,320.28,110.6Z"/><path class="cls-2" d="M282.77,116.78c-.21,1.81-1,3.11-3,3.15a2.68,2.68,0,0,1-3-2.59c-.15-2.15,1.41-3.17,3.16-3.36S282.49,115.2,282.77,116.78Z"/><path class="cls-2" d="M252.77,234.25a26.82,26.82,0,0,1-12-3.17c-2.9-1.41-3.55-3.72-2.16-6.65a10.83,10.83,0,0,1,4.57-4.64,30.07,30.07,0,0,0,11.67-12.88c4.63-9.08,15.28-13.75,25.26-11.95,6.66,1.2,10.1,5.63,12.25,11.48,2.07,5.62,2.39,11.55,2.9,17.43.09,1.09.33,2.53-1.41,2.63s-2-1.09-2.13-2.51a78.09,78.09,0,0,0-1.94-14.45C287.6,201,282,197.3,273.3,198.43c-7.33.95-12.88,4.44-15.94,11.29a26.73,26.73,0,0,1-10.45,11.76,35.89,35.89,0,0,0-3.15,2.17c-3,2.33-2.79,3.5.66,5a23.66,23.66,0,0,0,16,1.05,47.7,47.7,0,0,1,8.12-1.82c4.36-.38,7.35,1.61,9.39,5.25a9.26,9.26,0,0,1-.49,10.46c-1.32,1.91-2.88,3.65-4.22,5.53-1.71,2.4-2.6,5-.86,7.75.6,1,.7,1.71-.37,2.3a1.92,1.92,0,0,1-2.75-.63,8.7,8.7,0,0,1-.74-8c.95-2.84,3.18-4.8,4.89-7.12,2.55-3.43,3-6.44,1.1-9.29-2.1-3.21-5.15-2.9-8.39-2.3C261.64,232.68,257.37,234.39,252.77,234.25Z"/><path class="cls-2" d="M301.55,208.51c-.24-3.94-.42-6.72-.59-9.5-.08-1.23,0-2.44,1.56-2.62s1.91.89,2,2.19a102.38,102.38,0,0,1-1.76,30.1c-.95,4.35-5.79,7.64-10.17,7.46a6.26,6.26,0,0,1-6.38-5.73c-.45-3.56-.45-7.17-.75-10.75-.5-5.94-4.32-10.56-9.42-11.44a9.14,9.14,0,0,0-9.69,3.92c-1.83,2.57-2.8,5.56-4.14,8.37-1.85,3.88-4.65,6.61-9.21,6.92-1,.08-2.25.08-2.44-1.32a1.79,1.79,0,0,1,2-2.24c3.36,0,5.24-2.14,6.66-4.81,1.63-3.06,3.27-6.12,4.71-9.27,2.95-6.44,16.64-7.21,20.53-1.23,2.61,4,4.57,8,4.59,12.84a49.21,49.21,0,0,0,.07,5.57c.26,2.26.34,4.8,3.41,5.31a6,6,0,0,0,6.75-4.24,55.4,55.4,0,0,0,1.63-8.87C301.31,215.26,301.39,211.3,301.55,208.51Z"/><path class="cls-2" d="M314.29,209.44c-.11,11,0,22.42-5.68,32.14-5,8.47-8.07,16.88-7.68,26.74.24,5.91-3.45,11.3-3.15,17.36a1.49,1.49,0,0,1-1.88,1.54,2,2,0,0,1-1.77-2.21,26.69,26.69,0,0,1,1.06-7.2,46.72,46.72,0,0,0,2.22-17.47c-.58-6.51-2.23-8.8-8.39-10.57-1.24-.35-2.34-.74-2-2.24s1.68-1.52,2.81-1.29c2.5.51,5.08,1.19,6.79,3.18,2.06,2.38,2.77,1.17,4.15-.75,8.34-11.51,9.79-24.75,10-38.34,0-3.71,0-7.43,0-11.15,0-1.42-.49-3.36,1.85-3.35,2.14,0,1.66,1.86,1.68,3.15C314.33,202.47,314.29,206,314.29,209.44Z"/><path class="cls-2" d="M276.79,215.62c-.21,1.81-1,3.11-3,3.14a2.66,2.66,0,0,1-3-2.58c-.15-2.16,1.41-3.17,3.16-3.36S276.51,214,276.79,215.62Z"/><path class="cls-2" d="M100.14,135.41a26.94,26.94,0,0,1-12-3.16c-2.9-1.41-3.55-3.73-2.16-6.66A10.89,10.89,0,0,1,90.56,121a30.07,30.07,0,0,0,11.67-12.88c4.63-9.07,15.28-13.74,25.26-11.94,6.66,1.2,10.1,5.63,12.25,11.48,2.07,5.61,2.39,11.54,2.9,17.42.09,1.09.33,2.53-1.41,2.64s-2-1.1-2.14-2.51a78.07,78.07,0,0,0-1.93-14.46c-2.19-8.56-7.77-12.24-16.49-11.1-7.33,1-12.89,4.44-15.94,11.28a26.73,26.73,0,0,1-10.45,11.76,35.89,35.89,0,0,0-3.15,2.17c-3,2.33-2.79,3.5.66,5a23.66,23.66,0,0,0,16,1.05,48.67,48.67,0,0,1,8.12-1.82c4.36-.37,7.34,1.61,9.38,5.25a9.26,9.26,0,0,1-.48,10.47c-1.32,1.9-2.88,3.64-4.23,5.53-1.7,2.39-2.59,5-.85,7.74.6,1,.7,1.72-.37,2.31a1.92,1.92,0,0,1-2.75-.64,8.68,8.68,0,0,1-.74-8c1-2.85,3.18-4.81,4.89-7.12,2.55-3.44,3-6.44,1.1-9.3-2.1-3.21-5.15-2.9-8.39-2.3C109,133.84,104.74,135.56,100.14,135.41Z"/><path class="cls-2" d="M148.92,109.67c-.25-3.94-.42-6.72-.59-9.5-.08-1.23,0-2.43,1.56-2.62s1.91.9,2,2.19a102.36,102.36,0,0,1-1.76,30.1c-1,4.36-5.79,7.64-10.17,7.46a6.25,6.25,0,0,1-6.38-5.73c-.45-3.56-.45-7.17-.75-10.75-.5-5.94-4.32-10.56-9.43-11.44a9.15,9.15,0,0,0-9.69,3.92c-1.82,2.57-2.79,5.56-4.13,8.37-1.85,3.88-4.66,6.62-9.21,6.93-1,.07-2.25.08-2.44-1.33a1.78,1.78,0,0,1,2-2.23c3.35,0,5.24-2.15,6.66-4.81,1.63-3.06,3.27-6.13,4.71-9.28,2.95-6.44,16.64-7.2,20.53-1.23,2.61,4,4.57,8,4.59,12.84a49.21,49.21,0,0,0,.07,5.57c.26,2.26.34,4.8,3.41,5.31a6,6,0,0,0,6.75-4.23,57,57,0,0,0,1.63-8.87C148.67,116.42,148.76,112.47,148.92,109.67Z"/><path class="cls-2" d="M161.66,110.6c-.11,11,0,22.42-5.68,32.15-5,8.46-8.07,16.87-7.68,26.73.23,5.91-3.45,11.3-3.15,17.36a1.49,1.49,0,0,1-1.88,1.54,2,2,0,0,1-1.78-2.2,27.16,27.16,0,0,1,1.06-7.21c1.68-5.7,2.76-11.45,2.23-17.47-.58-6.51-2.23-8.8-8.4-10.56-1.23-.36-2.33-.75-2-2.25s1.68-1.51,2.81-1.28c2.5.5,5.08,1.19,6.79,3.17,2.06,2.38,2.76,1.17,4.15-.75,8.34-11.51,9.79-24.75,10-38.34,0-3.71,0-7.43,0-11.14,0-1.43-.49-3.37,1.85-3.35,2.14,0,1.66,1.85,1.68,3.15C161.7,103.63,161.66,107.11,161.66,110.6Z"/><path class="cls-2" d="M124.16,116.78c-.21,1.81-1,3.11-3,3.15a2.67,2.67,0,0,1-3-2.59c-.15-2.15,1.41-3.17,3.16-3.36S123.88,115.2,124.16,116.78Z"/><path class="cls-2" d="M94.15,234.25a26.77,26.77,0,0,1-12-3.17c-2.9-1.41-3.55-3.72-2.16-6.65a10.83,10.83,0,0,1,4.57-4.64,30,30,0,0,0,11.66-12.88c4.64-9.08,15.28-13.75,25.27-11.95,6.65,1.2,10.1,5.63,12.25,11.48,2.06,5.62,2.39,11.55,2.9,17.43.09,1.09.33,2.53-1.41,2.63s-2.05-1.09-2.14-2.51a78.08,78.08,0,0,0-1.93-14.45c-2.19-8.57-7.77-12.24-16.5-11.11-7.32.95-12.88,4.44-15.93,11.29a26.69,26.69,0,0,1-10.46,11.76,37.3,37.3,0,0,0-3.14,2.17c-3,2.33-2.79,3.5.66,5a23.66,23.66,0,0,0,16,1.05,47.7,47.7,0,0,1,8.12-1.82c4.36-.38,7.34,1.61,9.38,5.25a9.28,9.28,0,0,1-.48,10.46c-1.33,1.91-2.88,3.65-4.23,5.53-1.71,2.4-2.59,5-.85,7.75.6,1,.7,1.71-.37,2.3a1.92,1.92,0,0,1-2.75-.63,8.7,8.7,0,0,1-.74-8c1-2.84,3.17-4.8,4.89-7.12,2.54-3.43,3-6.44,1.09-9.29-2.09-3.21-5.14-2.9-8.38-2.3C103,232.68,98.76,234.39,94.15,234.25Z"/><path class="cls-2" d="M142.94,208.51c-.25-3.94-.42-6.72-.59-9.5-.08-1.23,0-2.44,1.56-2.62s1.91.89,2,2.19a102.72,102.72,0,0,1-1.76,30.1c-1,4.35-5.79,7.64-10.18,7.46a6.26,6.26,0,0,1-6.38-5.73c-.44-3.56-.44-7.17-.74-10.75-.5-5.94-4.32-10.56-9.43-11.44a9.15,9.15,0,0,0-9.69,3.92c-1.82,2.57-2.79,5.56-4.13,8.37-1.85,3.88-4.66,6.61-9.22,6.92-1,.08-2.24.08-2.43-1.32a1.79,1.79,0,0,1,2-2.24c3.35,0,5.24-2.14,6.66-4.81,1.63-3.06,3.27-6.12,4.71-9.27,3-6.44,16.64-7.21,20.52-1.23,2.62,4,4.57,8,4.59,12.84a51.65,51.65,0,0,0,.08,5.57c.26,2.26.34,4.8,3.41,5.31a6,6,0,0,0,6.75-4.24,56.51,56.51,0,0,0,1.62-8.87C142.69,215.26,142.78,211.3,142.94,208.51Z"/><path class="cls-2" d="M155.68,209.44c-.11,11,0,22.42-5.69,32.14-5,8.47-8.06,16.88-7.67,26.74.23,5.91-3.45,11.3-3.16,17.36a1.48,1.48,0,0,1-1.87,1.54,2,2,0,0,1-1.78-2.21,27.09,27.09,0,0,1,1.06-7.2c1.68-5.7,2.76-11.45,2.23-17.47-.58-6.51-2.23-8.8-8.4-10.57-1.23-.35-2.34-.74-2-2.24s1.69-1.52,2.81-1.29c2.51.51,5.08,1.19,6.8,3.18,2.06,2.38,2.76,1.17,4.15-.75,8.33-11.51,9.78-24.75,10-38.34.06-3.71,0-7.43,0-11.15,0-1.42-.49-3.36,1.86-3.35,2.13,0,1.66,1.86,1.68,3.15C155.72,202.47,155.68,206,155.68,209.44Z"/><path class="cls-2" d="M118.18,215.62c-.22,1.81-1,3.11-3,3.14a2.66,2.66,0,0,1-3-2.58c-.15-2.16,1.41-3.17,3.16-3.36S117.9,214,118.18,215.62Z"/><path class="cls-2" d="M223.07,193.53a26.94,26.94,0,0,0,12-3.16c2.9-1.41,3.55-3.73,2.16-6.66a10.89,10.89,0,0,0-4.57-4.64A30.07,30.07,0,0,1,221,166.19c-4.63-9.07-15.28-13.74-25.26-11.94-6.66,1.2-10.1,5.63-12.25,11.48-2.07,5.61-2.39,11.54-2.9,17.42-.09,1.09-.33,2.53,1.41,2.64s2.05-1.09,2.13-2.51a78.94,78.94,0,0,1,1.94-14.46c2.19-8.56,7.77-12.23,16.49-11.1,7.33.95,12.89,4.44,15.94,11.28a26.73,26.73,0,0,0,10.45,11.76,35.89,35.89,0,0,1,3.15,2.17c3,2.33,2.79,3.5-.66,5a23.66,23.66,0,0,1-16,1.05,48.67,48.67,0,0,0-8.12-1.82c-4.36-.37-7.35,1.61-9.38,5.25a9.26,9.26,0,0,0,.48,10.47c1.32,1.9,2.88,3.64,4.22,5.53,1.71,2.39,2.6,5,.86,7.74-.6,1-.7,1.72.37,2.31a1.92,1.92,0,0,0,2.75-.64,8.68,8.68,0,0,0,.74-8c-1-2.85-3.18-4.81-4.89-7.12-2.55-3.44-3-6.44-1.1-9.3,2.1-3.21,5.15-2.9,8.39-2.3C214.2,192,218.47,193.68,223.07,193.53Z"/><path class="cls-2" d="M174.29,167.79c.25-3.93.42-6.72.59-9.5.08-1.23,0-2.43-1.56-2.62s-1.91.9-2,2.19a102.36,102.36,0,0,0,1.76,30.1c1,4.36,5.79,7.64,10.17,7.47a6.27,6.27,0,0,0,6.38-5.74c.45-3.56.45-7.17.75-10.75.5-5.94,4.32-10.56,9.42-11.44a9.14,9.14,0,0,1,9.69,3.92c1.83,2.57,2.8,5.56,4.14,8.37,1.85,3.88,4.65,6.62,9.21,6.93,1,.07,2.25.08,2.44-1.33a1.78,1.78,0,0,0-2-2.23c-3.35,0-5.24-2.15-6.66-4.81-1.63-3.06-3.27-6.13-4.71-9.28-2.95-6.44-16.64-7.2-20.53-1.23-2.61,4-4.57,8-4.59,12.84a49.21,49.21,0,0,1-.07,5.57c-.26,2.26-.34,4.8-3.41,5.31a6,6,0,0,1-6.75-4.23,55.81,55.81,0,0,1-1.63-8.87C174.54,174.54,174.45,170.59,174.29,167.79Z"/><path class="cls-2" d="M161.55,168.72c.11,11,0,22.42,5.68,32.15,5,8.46,8.07,16.87,7.68,26.73-.23,5.91,3.45,11.3,3.15,17.36a1.49,1.49,0,0,0,1.88,1.54,1.94,1.94,0,0,0,1.77-2.2,26.76,26.76,0,0,0-1.06-7.21c-1.67-5.7-2.75-11.45-2.22-17.47.58-6.51,2.23-8.8,8.4-10.56,1.23-.36,2.33-.75,2-2.25s-1.68-1.51-2.81-1.28c-2.5.5-5.08,1.19-6.79,3.17-2.06,2.38-2.76,1.17-4.15-.75-8.34-11.51-9.79-24.75-10-38.33-.05-3.72,0-7.44,0-11.15,0-1.43.49-3.37-1.85-3.35-2.14,0-1.66,1.85-1.68,3.15C161.51,161.75,161.55,165.23,161.55,168.72Z"/><path class="cls-2" d="M199.05,174.9c.21,1.82,1,3.12,3,3.15a2.67,2.67,0,0,0,3-2.59c.15-2.15-1.41-3.17-3.16-3.36S199.33,173.32,199.05,174.9Z"/><path class="cls-2" d="M3.05,110.6c-.11,11,0,22.42-5.69,32.15-5,8.46-8.06,16.87-7.67,26.73.23,5.91-3.45,11.3-3.16,17.36a1.49,1.49,0,0,1-1.87,1.54,1.94,1.94,0,0,1-1.78-2.2A27.16,27.16,0,0,1-16.06,179c1.68-5.7,2.76-11.45,2.22-17.47-.57-6.51-2.22-8.8-8.39-10.56-1.23-.36-2.34-.75-2-2.25s1.68-1.51,2.81-1.28c2.51.5,5.08,1.19,6.8,3.17,2.06,2.38,2.76,1.17,4.15-.75,8.33-11.51,9.78-24.75,10-38.34.05-3.71,0-7.43,0-11.14C-.49,98.92-1,97,1.34,97,3.48,97,3,98.85,3,100.15,3.09,103.63,3.05,107.11,3.05,110.6Z"/><path class="cls-2" d="M64.46,193.53a26.89,26.89,0,0,0,12-3.16c2.91-1.41,3.55-3.73,2.16-6.66A10.83,10.83,0,0,0,74,179.07a30,30,0,0,1-11.66-12.88c-4.63-9.07-15.28-13.74-25.26-11.94-6.66,1.2-10.1,5.63-12.26,11.48-2.06,5.61-2.38,11.54-2.89,17.42-.1,1.09-.34,2.53,1.41,2.64s2-1.09,2.13-2.51a78.09,78.09,0,0,1,1.94-14.46c2.18-8.56,7.76-12.23,16.49-11.1,7.32.95,12.88,4.44,15.93,11.28a26.81,26.81,0,0,0,10.46,11.76,37.46,37.46,0,0,1,3.15,2.17c3,2.33,2.78,3.5-.67,5a23.63,23.63,0,0,1-16,1.05,48.67,48.67,0,0,0-8.12-1.82c-4.36-.37-7.35,1.61-9.39,5.25a9.28,9.28,0,0,0,.49,10.47c1.32,1.9,2.88,3.64,4.22,5.53,1.71,2.39,2.59,5,.86,7.74-.6,1-.7,1.72.37,2.31a1.91,1.91,0,0,0,2.74-.64,8.71,8.71,0,0,0,.75-8c-.95-2.85-3.18-4.81-4.89-7.12-2.55-3.44-3-6.44-1.1-9.3,2.1-3.21,5.14-2.9,8.38-2.3C55.58,192,59.86,193.68,64.46,193.53Z"/><path class="cls-2" d="M15.68,167.79c.24-3.93.41-6.72.59-9.5.07-1.23,0-2.43-1.57-2.62s-1.9.9-2,2.19A102.37,102.37,0,0,0,14.46,188c.95,4.36,5.79,7.64,10.17,7.47A6.27,6.27,0,0,0,31,189.69c.44-3.56.44-7.17.74-10.75.5-5.94,4.32-10.56,9.43-11.44a9.15,9.15,0,0,1,9.69,3.92C52.7,174,53.67,177,55,179.79c1.86,3.88,4.66,6.62,9.22,6.93,1,.07,2.24.08,2.44-1.33a1.79,1.79,0,0,0-2-2.23c-3.36,0-5.24-2.15-6.66-4.81-1.63-3.06-3.27-6.13-4.71-9.28-3-6.44-16.64-7.2-20.53-1.23-2.61,4-4.57,8-4.59,12.84a51.66,51.66,0,0,1-.07,5.57c-.26,2.26-.34,4.8-3.42,5.31A6,6,0,0,1,18,187.33a56.94,56.94,0,0,1-1.62-8.87C15.92,174.54,15.84,170.59,15.68,167.79Z"/><path class="cls-2" d="M2.93,168.72c.11,11,0,22.42,5.69,32.15,5,8.46,8.06,16.87,7.67,26.73-.23,5.91,3.45,11.3,3.16,17.36a1.49,1.49,0,0,0,1.88,1.54,1.94,1.94,0,0,0,1.77-2.2A27.16,27.16,0,0,0,22,237.09c-1.68-5.7-2.76-11.45-2.22-17.47.58-6.51,2.22-8.8,8.39-10.56,1.24-.36,2.34-.75,2-2.25s-1.68-1.51-2.81-1.28c-2.5.5-5.08,1.19-6.79,3.17-2.07,2.38-2.77,1.17-4.16-.75-8.33-11.51-9.78-24.75-10-38.33,0-3.72,0-7.44,0-11.15,0-1.43.49-3.37-1.85-3.35C2.5,155.13,3,157,3,158.27,2.9,161.75,2.93,165.23,2.93,168.72Z"/><path class="cls-2" d="M40.44,174.9c.21,1.82,1,3.12,3,3.15a2.68,2.68,0,0,0,3-2.59c.15-2.15-1.41-3.17-3.17-3.36S40.72,173.32,40.44,174.9Z"/><path class="cls-2" d="M173.46,42.76a26.9,26.9,0,0,1-12-3.17c-2.91-1.41-3.55-3.72-2.16-6.65a10.78,10.78,0,0,1,4.57-4.64,30,30,0,0,0,11.66-12.89c4.63-9.07,15.28-13.74,25.26-11.94,6.66,1.2,10.1,5.63,12.26,11.48,2.06,5.62,2.38,11.55,2.89,17.43.1,1.09.34,2.52-1.41,2.63s-2-1.09-2.13-2.51a78.09,78.09,0,0,0-1.94-14.45C208.3,9.48,202.72,5.81,194,6.94c-7.32.95-12.88,4.44-15.93,11.28A26.7,26.7,0,0,1,167.6,30c-1.07.69-2.15,1.39-3.15,2.17-3,2.34-2.78,3.51.67,5a23.63,23.63,0,0,0,16,1,47.7,47.7,0,0,1,8.12-1.82c4.36-.38,7.35,1.61,9.39,5.25a9.26,9.26,0,0,1-.49,10.46c-1.32,1.91-2.88,3.64-4.22,5.53-1.71,2.4-2.59,5-.86,7.75.6,1,.7,1.71-.37,2.3a1.91,1.91,0,0,1-2.74-.63,8.73,8.73,0,0,1-.75-8c1-2.85,3.18-4.8,4.9-7.12,2.54-3.43,2.95-6.44,1.09-9.29-2.09-3.21-5.14-2.9-8.38-2.3C182.34,41.19,178.06,42.9,173.46,42.76Z"/><path class="cls-2" d="M222.24,17c-.24-3.94-.41-6.72-.59-9.5-.07-1.23,0-2.44,1.57-2.62s1.91.89,2,2.19a102.39,102.39,0,0,1-1.77,30.1c-1,4.35-5.79,7.64-10.17,7.46a6.26,6.26,0,0,1-6.38-5.73c-.44-3.56-.44-7.17-.74-10.75-.5-5.94-4.32-10.56-9.43-11.44a9.15,9.15,0,0,0-9.69,3.92c-1.83,2.57-2.79,5.56-4.13,8.37-1.85,3.88-4.66,6.61-9.22,6.92-1,.07-2.24.08-2.44-1.32a1.8,1.8,0,0,1,2-2.24c3.36,0,5.24-2.14,6.66-4.81,1.63-3.06,3.27-6.12,4.71-9.27,2.95-6.44,16.64-7.21,20.53-1.23,2.61,4,4.57,8,4.59,12.84a49.2,49.2,0,0,0,.08,5.57c.25,2.26.33,4.8,3.41,5.31A6,6,0,0,0,220,36.55a56.51,56.51,0,0,0,1.62-8.87C222,23.77,222.08,19.81,222.24,17Z"/><path class="cls-2" d="M235,17.94c-.11,11,0,22.43-5.69,32.15-5,8.47-8.06,16.88-7.67,26.74.23,5.91-3.45,11.3-3.16,17.36a1.49,1.49,0,0,1-1.88,1.54,2,2,0,0,1-1.77-2.21,27.09,27.09,0,0,1,1.06-7.2c1.68-5.7,2.76-11.45,2.22-17.47-.58-6.51-2.22-8.8-8.39-10.57-1.24-.35-2.34-.74-2-2.24s1.68-1.52,2.81-1.29c2.51.51,5.08,1.19,6.79,3.17,2.07,2.39,2.77,1.18,4.16-.74,8.33-11.51,9.78-24.75,10-38.34.05-3.71,0-7.43,0-11.15,0-1.42-.49-3.36,1.85-3.35,2.14,0,1.66,1.86,1.69,3.15C235,11,235,14.46,235,17.94Z"/><path class="cls-2" d="M197.48,24.13c-.21,1.81-1,3.11-3,3.14a2.67,2.67,0,0,1-3-2.59c-.15-2.15,1.41-3.16,3.17-3.35S197.2,22.54,197.48,24.13Z"/><path class="cls-2" d="M302.38,2a26.85,26.85,0,0,0,12-3.17c2.9-1.41,3.54-3.72,2.16-6.65A10.85,10.85,0,0,0,312-12.42,30,30,0,0,1,300.29-25.3C295.66-34.37,285-39,275-37.24c-6.66,1.2-10.1,5.63-12.25,11.48-2.07,5.61-2.39,11.54-2.9,17.42-.1,1.09-.34,2.53,1.41,2.64s2-1.1,2.13-2.52a78.09,78.09,0,0,1,1.94-14.45c2.18-8.56,7.76-12.24,16.49-11.1,7.32.94,12.88,4.44,15.93,11.28a26.81,26.81,0,0,0,10.46,11.76,37.46,37.46,0,0,1,3.15,2.17c3,2.33,2.78,3.5-.67,5a23.63,23.63,0,0,1-16,1,48.67,48.67,0,0,0-8.12-1.82c-4.36-.38-7.35,1.61-9.39,5.25a9.28,9.28,0,0,0,.49,10.47c1.32,1.9,2.88,3.64,4.22,5.52,1.71,2.4,2.59,5,.86,7.75-.6,1-.7,1.72.37,2.31a1.91,1.91,0,0,0,2.74-.64,8.71,8.71,0,0,0,.75-8c-.95-2.85-3.18-4.81-4.89-7.12-2.55-3.44-3-6.44-1.1-9.3,2.1-3.21,5.14-2.9,8.38-2.3C293.5.47,297.78,2.18,302.38,2Z"/><path class="cls-2" d="M253.6-23.7c.24-3.94.41-6.72.59-9.5.08-1.23,0-2.43-1.57-2.62s-1.9.9-2,2.19a102.39,102.39,0,0,0,1.77,30.1c1,4.36,5.79,7.64,10.17,7.46a6.26,6.26,0,0,0,6.38-5.73c.44-3.56.44-7.17.74-10.75.5-5.94,4.32-10.56,9.43-11.44a9.15,9.15,0,0,1,9.69,3.92c1.83,2.57,2.8,5.56,4.13,8.37,1.86,3.88,4.66,6.62,9.22,6.93,1.05.07,2.24.07,2.44-1.33a1.79,1.79,0,0,0-2-2.23c-3.36,0-5.24-2.15-6.66-4.82-1.63-3-3.27-6.12-4.71-9.27-3-6.44-16.64-7.2-20.53-1.23-2.61,4-4.57,8-4.59,12.84A51.66,51.66,0,0,1,266-5.24c-.26,2.26-.34,4.8-3.42,5.31a6,6,0,0,1-6.75-4.23A56.94,56.94,0,0,1,254.25-13C253.84-16.95,253.76-20.9,253.6-23.7Z"/><path class="cls-2" d="M240.85-22.77c.11,11,0,22.42,5.69,32.15,5,8.46,8.06,16.87,7.67,26.73-.23,5.91,3.45,11.3,3.16,17.36A1.49,1.49,0,0,0,259.25,55a1.94,1.94,0,0,0,1.77-2.2A27.1,27.1,0,0,0,260,45.6c-1.68-5.7-2.76-11.45-2.22-17.47.58-6.51,2.22-8.8,8.39-10.56,1.24-.36,2.34-.75,2-2.25s-1.68-1.51-2.81-1.29c-2.5.51-5.08,1.2-6.79,3.18-2.07,2.38-2.77,1.17-4.16-.75-8.33-11.51-9.78-24.75-10-38.34-.05-3.71,0-7.43,0-11.14,0-1.43.49-3.37-1.85-3.36-2.14,0-1.66,1.86-1.69,3.16C240.82-29.74,240.85-26.26,240.85-22.77Z"/><path class="cls-2" d="M14.85,42.76a27,27,0,0,1-12-3.17C0,38.18-.69,35.87.7,32.94A10.83,10.83,0,0,1,5.27,28.3,30,30,0,0,0,16.94,15.41C21.57,6.34,32.22,1.67,42.2,3.47,48.86,4.67,52.3,9.1,54.45,15c2.07,5.62,2.39,11.55,2.9,17.43.09,1.09.33,2.52-1.41,2.63s-2-1.09-2.13-2.51a79,79,0,0,0-1.94-14.45C49.68,9.48,44.1,5.81,35.38,6.94c-7.33.95-12.89,4.44-15.94,11.28A26.62,26.62,0,0,1,9,30c-1.08.69-2.15,1.39-3.15,2.17-3,2.34-2.79,3.51.66,5a23.66,23.66,0,0,0,16,1,47.7,47.7,0,0,1,8.12-1.82C35,36,37.94,38,40,41.65a9.24,9.24,0,0,1-.48,10.46c-1.32,1.91-2.88,3.64-4.22,5.53-1.71,2.4-2.6,5-.86,7.75.6,1,.7,1.71-.37,2.3a1.92,1.92,0,0,1-2.75-.63,8.7,8.7,0,0,1-.74-8c.95-2.85,3.18-4.8,4.89-7.12,2.55-3.43,3-6.44,1.1-9.29-2.1-3.21-5.15-2.9-8.39-2.3C23.72,41.19,19.45,42.9,14.85,42.76Z"/><path class="cls-2" d="M63.63,17c-.24-3.94-.42-6.72-.59-9.5-.08-1.23,0-2.44,1.56-2.62s1.91.89,2,2.19a102.38,102.38,0,0,1-1.76,30.1c-.95,4.35-5.79,7.64-10.17,7.46a6.25,6.25,0,0,1-6.38-5.73c-.45-3.56-.45-7.17-.75-10.75-.5-5.94-4.32-10.56-9.42-11.44a9.14,9.14,0,0,0-9.69,3.92c-1.83,2.57-2.8,5.56-4.14,8.37-1.85,3.88-4.65,6.61-9.21,6.92C14,36,12.84,36,12.65,34.62a1.79,1.79,0,0,1,2-2.24c3.35,0,5.24-2.14,6.66-4.81,1.63-3.06,3.27-6.12,4.71-9.27,2.95-6.44,16.64-7.21,20.53-1.23,2.61,4,4.57,8,4.59,12.84a49.21,49.21,0,0,0,.07,5.57c.26,2.26.34,4.8,3.41,5.31a6,6,0,0,0,6.75-4.24A55.4,55.4,0,0,0,63,27.68C63.39,23.77,63.47,19.81,63.63,17Z"/><path class="cls-2" d="M76.37,17.94c-.11,11,0,22.43-5.68,32.15C65.71,58.56,62.62,67,63,76.83c.24,5.91-3.45,11.3-3.15,17.36A1.49,1.49,0,0,1,58,95.73a2,2,0,0,1-1.77-2.21,26.69,26.69,0,0,1,1.06-7.2,46.72,46.72,0,0,0,2.22-17.47c-.58-6.51-2.23-8.8-8.4-10.57-1.23-.35-2.33-.74-2-2.24s1.68-1.52,2.81-1.29c2.5.51,5.08,1.19,6.79,3.17,2.06,2.39,2.76,1.18,4.15-.74,8.34-11.51,9.79-24.75,10-38.34,0-3.71,0-7.43,0-11.15,0-1.42-.49-3.36,1.85-3.35,2.14,0,1.66,1.86,1.68,3.15C76.41,11,76.37,14.46,76.37,17.94Z"/><path class="cls-2" d="M38.87,24.13c-.21,1.81-1,3.11-3,3.14a2.66,2.66,0,0,1-3-2.59c-.15-2.15,1.41-3.16,3.16-3.35S38.59,22.54,38.87,24.13Z"/><path class="cls-2" d="M143.77,2a26.77,26.77,0,0,0,12-3.17c2.9-1.41,3.55-3.72,2.16-6.65a10.83,10.83,0,0,0-4.57-4.64A30,30,0,0,1,141.68-25.3C137-34.37,126.4-39,116.41-37.24c-6.65,1.2-10.1,5.63-12.25,11.48-2.06,5.61-2.39,11.54-2.89,17.42-.1,1.09-.34,2.53,1.41,2.64s2-1.1,2.13-2.52a78.08,78.08,0,0,1,1.93-14.45c2.19-8.56,7.77-12.24,16.5-11.1,7.32.94,12.88,4.44,15.93,11.28a26.69,26.69,0,0,0,10.46,11.76,37.3,37.3,0,0,1,3.14,2.17c3,2.33,2.79,3.5-.66,5a23.66,23.66,0,0,1-16,1A48.67,48.67,0,0,0,128-4.32c-4.36-.38-7.34,1.61-9.38,5.25a9.28,9.28,0,0,0,.49,10.47c1.32,1.9,2.87,3.64,4.22,5.52,1.71,2.4,2.59,5,.85,7.75-.6,1-.7,1.72.37,2.31a1.92,1.92,0,0,0,2.75-.64,8.68,8.68,0,0,0,.74-8c-1-2.85-3.17-4.81-4.89-7.12-2.54-3.44-3-6.44-1.09-9.3,2.09-3.21,5.14-2.9,8.38-2.3C134.89.47,139.16,2.18,143.77,2Z"/><path class="cls-2" d="M95-23.7c.25-3.94.42-6.72.59-9.5.08-1.23,0-2.43-1.56-2.62s-1.91.9-2,2.19a102.72,102.72,0,0,0,1.76,30.1c1,4.36,5.79,7.64,10.18,7.46a6.26,6.26,0,0,0,6.38-5.73c.44-3.56.44-7.17.74-10.75.5-5.94,4.32-10.56,9.43-11.44a9.15,9.15,0,0,1,9.69,3.92c1.82,2.57,2.79,5.56,4.13,8.37,1.85,3.88,4.66,6.62,9.22,6.93,1,.07,2.24.07,2.43-1.33a1.78,1.78,0,0,0-2-2.23c-3.35,0-5.24-2.15-6.66-4.82-1.63-3-3.27-6.12-4.71-9.27-3-6.44-16.64-7.2-20.52-1.23-2.62,4-4.57,8-4.59,12.84a51.65,51.65,0,0,1-.08,5.57C107.16-3,107.08-.44,104,.07a6,6,0,0,1-6.75-4.23A56.94,56.94,0,0,1,95.64-13C95.23-16.95,95.14-20.9,95-23.7Z"/><path class="cls-2" d="M82.24-22.77c.11,11,0,22.42,5.69,32.15,5,8.46,8.06,16.87,7.67,26.73-.23,5.91,3.45,11.3,3.16,17.36A1.49,1.49,0,0,0,100.63,55a2,2,0,0,0,1.78-2.2,27.1,27.1,0,0,0-1.06-7.21c-1.68-5.7-2.76-11.45-2.23-17.47.58-6.51,2.23-8.8,8.4-10.56,1.23-.36,2.34-.75,2-2.25s-1.69-1.51-2.81-1.29c-2.51.51-5.08,1.2-6.8,3.18-2.06,2.38-2.76,1.17-4.15-.75C87.46,5,86-8.29,85.82-21.88c-.06-3.71,0-7.43,0-11.14,0-1.43.49-3.37-1.85-3.36-2.14,0-1.67,1.86-1.69,3.16C82.2-29.74,82.24-26.26,82.24-22.77Z"/></pattern></defs><rect class="cls-3" x="46.5" y="27.57" width="1230.43" height="412.71" rx="206.36"/></svg>